<svg style="display:none">
	<symbol id="ChevronLeft" xmlns="http://www.w3.org/2000/svg" fill="none" viewBox="0 0 24 24" stroke="currentColor"><path stroke-linecap="round" stroke-linejoin="round" d="M15.75 19.5L8.25 12l7.5-7.5" /></symbol>
	<symbol id="ChevronRight" xmlns="http://www.w3.org/2000/svg" viewBox="0 0 32 32" fill="currentColor"><path fill-rule="evenodd" clip-rule="evenodd" d="M11.057 7.05721C11.5777 6.53651 12.4219 6.53651 12.9426 7.05721L20.9426 15.0572C21.4633 15.5779 21.4633 16.4221 20.9426 16.9428L12.9426 24.9428C12.4219 25.4635 11.5777 25.4635 11.057 24.9428C10.5363 24.4221 10.5363 23.5779 11.057 23.0572L18.1142 16L11.057 8.94283C10.5363 8.42213 10.5363 7.57791 11.057 7.05721Z"/></symbol>
	<symbol id="ChevronUp" xmlns="http://www.w3.org/2000/svg" viewBox="0 0 25 24" fill="currentColor"><path fill-rule="evenodd" clip-rule="evenodd" d="M11.7929 8.29289C12.1834 7.90237 12.8166 7.90237 13.2071 8.29289L19.2071 14.2929C19.5976 14.6834 19.5976 15.3166 19.2071 15.7071C18.8166 16.0976 18.1834 16.0976 17.7929 15.7071L12.5 10.4142L7.20711 15.7071C6.81658 16.0976 6.18342 16.0976 5.79289 15.7071C5.40237 15.3166 5.40237 14.6834 5.79289 14.2929L11.7929 8.29289Z"/></symbol>
	<symbol id="ChevronDown" xmlns="http://www.w3.org/2000/svg" viewBox="0 0 32 32" fill="currentColor"><path fill-rule="evenodd" clip-rule="evenodd" d="M7.05703 11.0572C7.57773 10.5365 8.42195 10.5365 8.94265 11.0572L15.9998 18.1144L23.057 11.0572C23.5777 10.5365 24.4219 10.5365 24.9426 11.0572C25.4633 11.5779 25.4633 12.4221 24.9426 12.9428L16.9426 20.9428C16.4219 21.4635 15.5777 21.4635 15.057 20.9428L7.05703 12.9428C6.53633 12.4221 6.53633 11.5779 7.05703 11.0572Z"/></symbol>	<symbol id="QuestionMarkCircle" xmlns="http://www.w3.org/2000/svg" fill="none" viewBox="0 0 24 24" stroke="currentColor"><path stroke-linecap="round" stroke-linejoin="round" d="M9.879 7.519c1.171-1.025 3.071-1.025 4.242 0 1.172 1.025 1.172 2.687 0 3.712-.203.179-.43.326-.67.442-.745.361-1.45.999-1.45 1.827v.75M21 12a9 9 0 11-18 0 9 9 0 0118 0zm-9 5.25h.008v.008H12v-.008z" /></symbol>
	<symbol id="User" width="24" height="24" viewBox="0 0 24 24" fill="none" xmlns="http://www.w3.org/2000/svg"><path d="M5.12104 17.8037C7.15267 16.6554 9.4998 16 12 16C14.5002 16 16.8473 16.6554 18.879 17.8037M15 10C15 11.6569 13.6569 13 12 13C10.3431 13 9 11.6569 9 10C9 8.34315 10.3431 7 12 7C13.6569 7 15 8.34315 15 10ZM21 12C21 16.9706 16.9706 21 12 21C7.02944 21 3 16.9706 3 12C3 7.02944 7.02944 3 12 3C16.9706 3 21 7.02944 21 12Z" stroke="#434343" stroke-linecap="round" stroke-linejoin="round"/></symbol>
	<symbol id="ShoppingCart" width="24" height="24" viewBox="0 0 22 22" fill="none" xmlns="http://www.w3.org/2000/svg"><path d="M13 9V5C13 2.79086 11.2091 1 9 1C6.79086 1 5 2.79086 5 5V9M2 7H16L17 19H1L2 7Z" stroke="#434343" stroke-linecap="round" stroke-linejoin="round"/></symbol>
	<symbol id="Bars3" xmlns="http://www.w3.org/2000/svg" width="24" height="24" viewBox="0 0 24 24" stroke="currentColor" fill="none"><path d="M3.75 12H20.25" stroke="#434343" stroke-linecap="round" stroke-linejoin="round"/>
	<path d="M3.75 6H20.25" stroke="#434343" stroke-linecap="round" stroke-linejoin="round"/>
	<path d="M3.75 18H20.25" stroke="#434343" stroke-linecap="round" stroke-linejoin="round"/></symbol>
	<symbol id="Heart" xmlns="http://www.w3.org/2000/svg" viewBox="0 0 24 24" stroke="currentColor"><path d="M4.31802 6.31802C2.56066 8.07538 2.56066 10.9246 4.31802 12.682L12.0001 20.364L19.682 12.682C21.4393 10.9246 21.4393 8.07538 19.682 6.31802C17.9246 4.56066 15.0754 4.56066 13.318 6.31802L12.0001 7.63609L10.682 6.31802C8.92462 4.56066 6.07538 4.56066 4.31802 6.31802Z" stroke="#434343" stroke-linecap="round" stroke-linejoin="round"/>
	</symbol>
	<symbol id="MagnifyingGlass" width="24" height="24" viewBox="0 0 24 24" fill="none" xmlns="http://www.w3.org/2000/svg"><path d="M21 21L15.0001 15M17 10C17 13.866 13.866 17 10 17C6.13401 17 3 13.866 3 10C3 6.13401 6.13401 3 10 3C13.866 3 17 6.13401 17 10Z" stroke="#434343" stroke-linecap="round" stroke-linejoin="round"/></symbol>
	<symbol id="XMark" xmlns="http://www.w3.org/2000/svg" fill="none" viewBox="0 0 24 24" stroke="currentColor"><path stroke-linecap="round" stroke-linejoin="round" d="M6 18L18 6M6 6l12 12" /></symbol>
	<symbol id="Plus" xmlns="http://www.w3.org/2000/svg" fill="none" viewBox="0 0 24 24" stroke="currentColor"><path stroke-linecap="round" stroke-linejoin="round" d="M12 4.5v15m7.5-7.5h-15" /></symbol>
	<symbol id="Minus" xmlns="http://www.w3.org/2000/svg" fill="none" viewBox="0 0 24 24" stroke="currentColor"><path stroke-linecap="round" stroke-linejoin="round" d="M19.5 12h-15" /></symbol>
	<symbol id="MapPin" xmlns="http://www.w3.org/2000/svg" fill="none" viewBox="0 0 24 24" stroke="currentColor"><path stroke-linecap="round" stroke-linejoin="round" d="M15 10.5a3 3 0 11-6 0 3 3 0 016 0z" /><path stroke-linecap="round" stroke-linejoin="round" d="M19.5 10.5c0 7.142-7.5 11.25-7.5 11.25S4.5 17.642 4.5 10.5a7.5 7.5 0 1115 0z" /></symbol>	
	<symbol id="Phone" xmlns="http://www.w3.org/2000/svg" fill="currentColor" viewBox="0 0 32 32"><path fill-rule="evenodd" clip-rule="evenodd" d="M6.66669 6.66667C6.31306 6.66667 5.97393 6.80714 5.72388 7.05719C5.4819 7.29917 5.34253 7.62459 5.33379 7.96582C5.64045 12.8244 7.70881 17.405 11.1519 20.8481C14.5951 24.2912 19.1756 26.3596 24.0342 26.6662C24.3754 26.6575 24.7008 26.5181 24.9428 26.2761C25.1929 26.0261 25.3334 25.687 25.3334 25.3333V20.9027L20.5591 18.993L19.1433 21.3527C18.7863 21.9477 18.0326 22.1694 17.4103 21.8625C14.2517 20.3047 11.6953 17.7483 10.1375 14.5898C9.83061 13.9674 10.0523 13.2137 10.6474 12.8567L13.007 11.4409L11.0973 6.66667H6.66669ZM3.83826 5.17157C4.58841 4.42143 5.60582 4 6.66669 4H12C12.5452 4 13.0355 4.33193 13.238 4.83815L15.9047 11.5048C16.1477 12.1124 15.9138 12.8066 15.3527 13.1433L13.1207 14.4825C14.2192 16.274 15.726 17.7809 17.5175 18.8793L18.8567 16.6473C19.1934 16.0862 19.8876 15.8523 20.4952 16.0954L27.1619 18.762C27.6681 18.9645 28 19.4548 28 20V25.3333C28 26.3942 27.5786 27.4116 26.8284 28.1618C26.0783 28.9119 25.0609 29.3333 24 29.3333C23.973 29.3333 23.9461 29.3325 23.9191 29.3309C18.3931 28.9951 13.181 26.6484 9.26632 22.7337C5.35161 18.819 3.00496 13.6069 2.66914 8.08088C2.66751 8.05395 2.66669 8.02698 2.66669 8C2.66669 6.93913 3.08811 5.92172 3.83826 5.17157Z" /></symbol>
	<symbol id="Elos" xmlns="http://www.w3.org/2000/svg" viewBox="0 0 40 14" stroke="currentColor" fill="none"><path d="M6.57655 3.09309C6.98496 2.95495 7.4234 2.88288 7.87985 2.88288C9.87385 2.88288 11.5375 4.3003 11.9159 6.18018L14.7387 5.6036C14.0901 2.40841 11.2672 0 7.87985 0C7.10508 0 6.36033 0.126126 5.66364 0.36036L6.57655 3.09309Z" fill="currentColor"/><path d="M3.24323 12.2463L5.15314 10.0841C4.30029 9.32733 3.76576 8.22823 3.76576 6.997C3.76576 5.77178 4.30029 4.66667 5.15314 3.91592L3.24323 1.75977C1.79579 3.04505 0.882874 4.91292 0.882874 7.00301C0.882874 9.08709 1.79579 10.961 3.24323 12.2463Z" fill="currentColor"/><path d="M11.9159 7.82617C11.5315 9.70605 9.87387 11.1175 7.87988 11.1175C7.42342 11.1175 6.98498 11.0454 6.57057 10.9073L5.65765 13.64C6.35435 13.8742 7.1051 14.0003 7.87988 14.0003C11.2673 14.0003 14.0901 11.5979 14.7387 8.40275L11.9159 7.82617Z" fill="currentColor"/><path d="M24.1441 9.75962C23.6757 10.2161 23.045 10.4924 22.3484 10.4803C21.8679 10.4743 21.4234 10.3302 21.0511 10.0899L20.1141 11.5794C20.7568 11.9818 21.5075 12.2221 22.3243 12.2341C23.5075 12.2521 24.5886 11.7836 25.3754 11.0209L24.1441 9.75962ZM22.4505 3.68755C20.0961 3.65151 18.1502 5.5374 18.1141 7.89175C18.1021 8.77463 18.3544 9.60346 18.8048 10.2881L26.5405 6.97884C26.1081 5.12298 24.4505 3.72358 22.4505 3.68755ZM19.8859 8.22809C19.8739 8.13199 19.8679 8.02989 19.8679 7.92779C19.8919 6.5404 21.033 5.42929 22.4204 5.45331C23.1772 5.46532 23.8499 5.80767 24.3003 6.34821L19.8859 8.22809ZM28.973 1.76562V10.0119L30.4024 10.6065L29.7237 12.2341L28.3063 11.6455C27.988 11.5074 27.7718 11.2972 27.6096 11.0569C27.4535 10.8167 27.3333 10.4803 27.3333 10.0359V1.76562H28.973Z" fill="currentColor"/><path d="M34.1321 5.57925C34.3844 5.49516 34.6487 5.45312 34.9309 5.45312C36.1502 5.45312 37.1592 6.31798 37.3934 7.46513L39.1171 7.11078C38.7207 5.15882 36.997 3.69336 34.9309 3.69336C34.4565 3.69336 34 3.77144 33.5796 3.90958L34.1321 5.57925ZM32.0961 11.1588L33.2613 9.84351C32.7387 9.38105 32.4144 8.70837 32.4144 7.95762C32.4144 7.20687 32.7448 6.5342 33.2613 6.07774L32.0961 4.76243C31.2132 5.54321 30.6547 6.69036 30.6547 7.96363C30.6547 9.2369 31.2132 10.378 32.0961 11.1588ZM37.3934 8.46813C37.1592 9.61528 36.1442 10.4801 34.9309 10.4801C34.6547 10.4801 34.3844 10.4321 34.1321 10.348L33.5736 12.0177C34 12.1618 34.4565 12.2399 34.9309 12.2399C36.997 12.2399 38.7207 10.7744 39.1171 8.82249L37.3934 8.46813Z" fill="currentColor"/></symbol>
	<symbol id="Mastercards" xmlns="http://www.w3.org/2000/svg" width="35" height="24" viewBox="0 0 35 24" fill="none" stroke="none">
	<rect x="1" y="0.5" width="33" height="23" rx="3.5" fill="white" stroke="#D9D9D9"/>
	<path fill-rule="evenodd" clip-rule="evenodd" d="M17.6791 16.7993C16.4951 17.7975 14.9591 18.4 13.2807 18.4C9.53582 18.4 6.5 15.4003 6.5 11.7C6.5 7.99969 9.53582 5 13.2807 5C14.9591 5 16.4951 5.60255 17.6791 6.60067C18.8632 5.60255 20.3992 5 22.0776 5C25.8224 5 28.8583 7.99969 28.8583 11.7C28.8583 15.4003 25.8224 18.4 22.0776 18.4C20.3992 18.4 18.8632 17.7975 17.6791 16.7993Z" fill="#ED0006"/>
	<path fill-rule="evenodd" clip-rule="evenodd" d="M17.6787 16.7997C19.1368 15.5708 20.0615 13.7421 20.0615 11.7C20.0615 9.65789 19.1368 7.82916 17.6787 6.60026C18.8627 5.60238 20.3985 5 22.0767 5C25.8215 5 28.8574 7.99969 28.8574 11.7C28.8574 15.4003 25.8215 18.4 22.0767 18.4C20.3985 18.4 18.8627 17.7976 17.6787 16.7997Z" fill="#F9A000"/>
	<path fill-rule="evenodd" clip-rule="evenodd" d="M17.6791 16.7992C19.137 15.5703 20.0614 13.7418 20.0614 11.6999C20.0614 9.65803 19.137 7.82949 17.6791 6.60059C16.2213 7.82949 15.2969 9.65803 15.2969 11.6999C15.2969 13.7418 16.2213 15.5703 17.6791 16.7992Z" fill="#FF5E00"/>
	</symbol>
	<symbol id="Visas" xmlns="http://www.w3.org/2000/svg" viewBox="0 0 40 12" fill="none" stroke="currentColor"><path d="M14.2514 11.8628L16.2325 0.237305H19.4012L17.4187 11.8628H14.2514Z" fill="currentColor"/><path d="M28.8667 0.488266C28.2389 0.252744 27.2552 0 26.0267 0C22.8956 0 20.6902 1.57674 20.6714 3.83653C20.6537 5.50698 22.2459 6.43886 23.4479 6.99494C24.6813 7.56486 25.0959 7.92824 25.09 8.437C25.0821 9.21631 24.105 9.57221 23.1942 9.57221C21.926 9.57221 21.2522 9.39601 20.2115 8.96208L19.8031 8.77728L19.3585 11.3797C20.0986 11.7043 21.4671 11.9854 22.8882 12C26.2191 12 28.3815 10.4413 28.4061 8.02807C28.4179 6.70556 27.5737 5.69921 25.7455 4.86948C24.638 4.33169 23.9597 3.97282 23.9669 3.42826C23.9669 2.94504 24.541 2.42833 25.7816 2.42833C26.8177 2.41223 27.5684 2.6382 28.1533 2.87372L28.4372 3.00787L28.8667 0.488266Z" fill="currentColor"/><path d="M37.0208 0.237305H34.5723C33.8138 0.237305 33.2461 0.444322 32.913 1.20137L28.2071 11.8552H31.5345C31.5345 11.8552 32.0785 10.4228 32.2015 10.1082C32.5651 10.1082 35.7976 10.1132 36.2597 10.1132C36.3545 10.5202 36.6452 11.8552 36.6452 11.8552H39.5855L37.0208 0.237305ZM33.136 7.74409C33.3981 7.07428 34.3985 4.49428 34.3985 4.49428C34.3798 4.52522 34.6587 3.82121 34.8186 3.38473L35.0328 4.38703C35.0328 4.38703 35.6395 7.16205 35.7663 7.74391H33.136V7.74409Z" fill="currentColor"/><path d="M0.45503 0.237305L0.414551 0.479138C1.66716 0.782359 2.78593 1.22123 3.76542 1.76717L6.57706 11.8441L9.92966 11.8404L14.9183 0.237305H11.5615L8.45929 8.16502L8.12885 6.55384C8.11337 6.50406 8.09654 6.4542 8.07932 6.40422L7.00087 1.21879C6.80912 0.482646 6.25282 0.262959 5.56461 0.237305H0.45503Z" fill="currentColor"/></symbol>		
	<symbol id="Pixs" viewBox="0 0 512 512" xmlns="http://www.w3.org/2000/svg" fill="none" stroke="currentColor"> <defs/> <g fill="currentColor" fill-rule="evenodd"> <path d="M393.072 391.897c-20.082 0-38.969-7.81-53.176-22.02l-77.069-77.067c-5.375-5.375-14.773-5.395-20.17 0l-76.784 76.786c-14.209 14.207-33.095 22.019-53.179 22.019h-9.247l97.521 97.52c30.375 30.375 79.614 30.375 109.988 0l97.239-97.238h-15.123zm-105.049 74.327c-8.55 8.53-19.93 13.25-32.05 13.25h-.02c-12.12 0-23.522-4.721-32.05-13.25l-56.855-56.855c7.875-4.613 15.165-10.248 21.758-16.84l63.948-63.948 64.23 64.23c7.637 7.66 16.188 14.013 25.478 18.952l-54.439 54.46zM310.958 22.78c-30.374-30.374-79.613-30.374-109.988 0l-97.52 97.52h9.247c20.082 0 38.97 7.834 53.178 22.02l76.784 76.785c5.57 5.592 14.622 5.57 20.17 0l77.069-77.068c14.207-14.187 33.094-22.02 53.176-22.02h15.123l-97.239-97.237zm6.028 96.346l-64.23 64.23-63.97-63.97c-6.593-6.592-13.86-12.206-21.736-16.818l56.853-56.877c17.69-17.645 46.476-17.668 64.121 0l54.44 54.461c-9.292 4.961-17.842 11.315-25.479 18.974h.001z"/> <path d="M489.149 200.97l-58.379-58.377h-37.706c-13.838 0-27.394 5.635-37.185 15.426l-77.068 77.069c-7.202 7.18-16.623 10.77-26.067 10.77-9.443 0-18.885-3.59-26.066-10.77l-76.785-76.785c-9.792-9.814-23.346-15.427-37.207-15.427h-31.81L22.78 200.97c-30.374 30.375-30.374 79.614 0 109.988l58.095 58.074 31.81.021c13.86 0 27.416-5.635 37.208-15.426l76.784-76.764c13.925-13.947 38.208-13.924 52.133-.02l77.068 77.066c9.791 9.792 23.346 15.405 37.185 15.405h37.706l58.379-58.356c30.374-30.374 30.374-79.613 0-109.988zm-362.19 129.724c-3.763 3.786-8.942 5.917-14.273 5.917H94.302l-48.59-48.564c-17.689-17.69-17.689-46.476 0-64.143L94.3 175.296h18.385c5.331 0 10.51 2.154 14.295 5.918l74.74 74.74-74.761 74.74zm339.257-42.647l-48.848 48.87h-24.305c-5.309 0-10.508-2.155-14.251-5.92l-75.023-75.043 75.023-75.023c3.743-3.764 8.942-5.918 14.252-5.918h24.304l48.847 48.891c8.573 8.551 13.273 19.93 13.273 32.05 0 12.141-4.7 23.52-13.273 32.093z"/> </g> </symbol>
	<symbol id="Instagram" xmlns="http://www.w3.org/2000/svg" viewBox="0 0 32 32" fill="currentColor" stroke-linecap="round" stroke-linejoin="round"><path fill-rule="evenodd" clip-rule="evenodd" d="M10.6667 6.66667C9.6058 6.66667 8.58838 7.08809 7.83824 7.83824C7.08809 8.58838 6.66667 9.6058 6.66667 10.6667V21.3333C6.66667 22.3942 7.08809 23.4116 7.83824 24.1618C8.58839 24.9119 9.6058 25.3333 10.6667 25.3333H21.3333C22.3942 25.3333 23.4116 24.9119 24.1618 24.1618C24.9119 23.4116 25.3333 22.3942 25.3333 21.3333V10.6667C25.3333 9.6058 24.9119 8.58839 24.1618 7.83824C23.4116 7.08809 22.3942 6.66667 21.3333 6.66667H10.6667ZM5.95262 5.95262C7.20286 4.70238 8.89856 4 10.6667 4H21.3333C23.1014 4 24.7971 4.70238 26.0474 5.95262C27.2976 7.20286 28 8.89856 28 10.6667V21.3333C28 23.1014 27.2976 24.7971 26.0474 26.0474C24.7971 27.2976 23.1014 28 21.3333 28H10.6667C8.89856 28 7.20286 27.2976 5.95262 26.0474C4.70238 24.7971 4 23.1014 4 21.3333V10.6667C4 8.89856 4.70238 7.20286 5.95262 5.95262Z"/><path fill-rule="evenodd" clip-rule="evenodd" d="M12.2288 12.2286C13.229 11.2284 14.5856 10.6665 16.0001 10.6665C17.4146 10.6665 18.7711 11.2284 19.7713 12.2286C20.7715 13.2288 21.3334 14.5854 21.3334 15.9998C21.3334 17.4143 20.7715 18.7709 19.7713 19.7711C18.7711 20.7713 17.4146 21.3332 16.0001 21.3332C14.5856 21.3332 13.229 20.7713 12.2288 19.7711C11.2287 18.7709 10.6667 17.4143 10.6667 15.9998C10.6667 14.5854 11.2287 13.2288 12.2288 12.2286ZM16.0001 13.3332C15.2928 13.3332 14.6146 13.6141 14.1145 14.1142C13.6144 14.6143 13.3334 15.2926 13.3334 15.9998C13.3334 16.7071 13.6144 17.3854 14.1145 17.8855C14.6146 18.3856 15.2928 18.6665 16.0001 18.6665C16.7073 18.6665 17.3856 18.3856 17.8857 17.8855C18.3858 17.3854 18.6667 16.7071 18.6667 15.9998C18.6667 15.2926 18.3858 14.6143 17.8857 14.1142C17.3856 13.6141 16.7073 13.3332 16.0001 13.3332Z"/><path fill-rule="evenodd" clip-rule="evenodd" d="M22.0001 8.6665C22.7365 8.6665 23.3334 9.26346 23.3334 9.99984V10.0132C23.3334 10.7496 22.7365 11.3465 22.0001 11.3465C21.2637 11.3465 20.6667 10.7496 20.6667 10.0132V9.99984C20.6667 9.26346 21.2637 8.6665 22.0001 8.6665Z"/></symbol>
	<symbol id="Truck" xmlns="http://www.w3.org/2000/svg"  viewBox="0 0 24 24" fill="currentColor"><path fill-rule="evenodd" clip-rule="evenodd" d="M1.09998 4.99998C1.09998 4.50292 1.50292 4.09998 1.99998 4.09998H13C13.497 4.09998 13.9 4.50292 13.9 4.99998V5.09998H18C18.3161 5.09998 18.6091 5.26584 18.7717 5.53693L21.7717 10.5369C21.8556 10.6768 21.9 10.8369 21.9 11V17C21.9 17.497 21.497 17.9 21 17.9H19.7576C19.3789 19.061 18.2874 19.9 17 19.9C15.7125 19.9 14.621 19.061 14.2423 17.9H9.75761C9.37893 19.061 8.28743 19.9 6.99998 19.9C5.71252 19.9 4.62102 19.061 4.24234 17.9H2.99998C2.50292 17.9 2.09998 17.497 2.09998 17V13C2.09998 12.5029 2.50292 12.1 2.99998 12.1C3.49703 12.1 3.89998 12.5029 3.89998 13V16.1H4.24234C4.62102 14.9389 5.71252 14.1 6.99998 14.1C8.28743 14.1 9.37893 14.9389 9.75761 16.1H12.1V5.89998H1.99998C1.50292 5.89998 1.09998 5.49703 1.09998 4.99998ZM13.9 6.89998V10.1H19.4104L17.4904 6.89998H13.9ZM20.1 11.9H13.9V16.1H14.2423C14.621 14.9389 15.7125 14.1 17 14.1C18.2874 14.1 19.3789 14.9389 19.7576 16.1H20.1V11.9ZM2.09998 8.99997C2.09998 8.50292 2.50292 8.09997 2.99998 8.09997H6.99998C7.49703 8.09997 7.89998 8.50292 7.89998 8.99997C7.89998 9.49703 7.49703 9.89997 6.99998 9.89997H2.99998C2.50292 9.89997 2.09998 9.49703 2.09998 8.99997ZM6.99998 15.9C6.39246 15.9 5.89998 16.3925 5.89998 17C5.89998 17.6075 6.39246 18.1 6.99998 18.1C7.60749 18.1 8.09998 17.6075 8.09998 17C8.09998 16.3925 7.60749 15.9 6.99998 15.9ZM17 15.9C16.3925 15.9 15.9 16.3925 15.9 17C15.9 17.6075 16.3925 18.1 17 18.1C17.6075 18.1 18.1 17.6075 18.1 17C18.1 16.3925 17.6075 15.9 17 15.9Z"/></symbol>
	<symbol id="Discount" xmlns="http://www.w3.org/2000/svg" viewBox="0 0 32 32" fill="currentColor"><path fill-rule="evenodd" clip-rule="evenodd" d="M20.9429 11.057C21.4636 11.5777 21.4636 12.4219 20.9429 12.9426L12.9429 20.9426C12.4222 21.4633 11.578 21.4633 11.0573 20.9426C10.5366 20.4219 10.5366 19.5777 11.0573 19.057L19.0573 11.057C19.578 10.5363 20.4222 10.5363 20.9429 11.057Z"/><path d="M12.6667 13.3333C13.0349 13.3333 13.3333 13.0349 13.3333 12.6667C13.3333 12.2985 13.0349 12 12.6667 12C12.2985 12 12 12.2985 12 12.6667C12 13.0349 12.2985 13.3333 12.6667 13.3333Z"/><path fill-rule="evenodd" clip-rule="evenodd" d="M12.6667 13.3332C13.0349 13.3332 13.3334 13.0347 13.3334 12.6665C13.3334 12.2983 13.0349 11.9998 12.6667 11.9998C12.2986 11.9998 12.0001 12.2983 12.0001 12.6665C12.0001 13.0347 12.2986 13.3332 12.6667 13.3332ZM10.6667 12.6665C10.6667 11.5619 11.5622 10.6665 12.6667 10.6665C13.7713 10.6665 14.6667 11.5619 14.6667 12.6665C14.6667 13.7711 13.7713 14.6665 12.6667 14.6665C11.5622 14.6665 10.6667 13.7711 10.6667 12.6665Z"/><path d="M19.3334 19.9998C19.7016 19.9998 20.0001 19.7014 20.0001 19.3332C20.0001 18.965 19.7016 18.6665 19.3334 18.6665C18.9652 18.6665 18.6667 18.965 18.6667 19.3332C18.6667 19.7014 18.9652 19.9998 19.3334 19.9998Z"/><path fill-rule="evenodd" clip-rule="evenodd" d="M19.3333 20.0002C19.7014 20.0002 19.9999 19.7017 19.9999 19.3335C19.9999 18.9653 19.7014 18.6668 19.3333 18.6668C18.9651 18.6668 18.6666 18.9653 18.6666 19.3335C18.6666 19.7017 18.9651 20.0002 19.3333 20.0002ZM17.3333 19.3335C17.3333 18.2289 18.2287 17.3335 19.3333 17.3335C20.4378 17.3335 21.3333 18.2289 21.3333 19.3335C21.3333 20.4381 20.4378 21.3335 19.3333 21.3335C18.2287 21.3335 17.3333 20.4381 17.3333 19.3335Z"/><path fill-rule="evenodd" clip-rule="evenodd" d="M16.0133 5.34831C15.8024 5.34831 15.5936 5.38999 15.3989 5.47096C15.2042 5.55193 15.0274 5.67059 14.8788 5.82012L14.8761 5.82277L13.9428 6.75611L13.9401 6.75875C13.1413 7.55313 12.0607 7.99932 10.9341 7.99996H9.59996C9.17562 7.99996 8.76865 8.16853 8.46859 8.46859C8.16853 8.76865 7.99996 9.17562 7.99996 9.59996V10.9333C7.99932 12.0599 7.55313 13.1413 6.75875 13.9401L6.75611 13.9428L5.82277 14.8761L5.82012 14.8788C5.67059 15.0274 5.55193 15.2042 5.47096 15.3989C5.38999 15.5936 5.34831 15.8024 5.34831 16.0133C5.34831 16.2242 5.38999 16.433 5.47096 16.6277C5.55193 16.8224 5.67059 16.9992 5.82012 17.1478L5.82278 17.1505L6.75876 18.0865C7.55313 18.8853 7.99932 19.9659 7.99996 21.0925V22.4266C7.99996 22.851 8.16854 23.2579 8.46859 23.558C8.76865 23.8581 9.17562 24.0266 9.59996 24.0266H10.9333C12.0599 24.0273 13.1413 24.4735 13.9401 25.2678L13.9428 25.2705L14.8788 26.2065C15.0274 26.356 15.2042 26.4747 15.3989 26.5556C15.5936 26.6366 15.8024 26.6783 16.0133 26.6783C16.2242 26.6783 16.433 26.6366 16.6277 26.5556C16.8224 26.4747 16.9992 26.356 17.1478 26.2065L17.1505 26.2038L18.0838 25.2705L18.0865 25.2678C18.8853 24.4735 19.9659 24.0273 21.0925 24.0266H22.4266C22.851 24.0266 23.2579 23.8581 23.558 23.558C23.8581 23.2579 24.0266 22.851 24.0266 22.4266V21.0933C24.0273 19.9667 24.4735 18.8853 25.2678 18.0865L25.2705 18.0838L26.2038 17.1505L26.2065 17.1478C26.356 16.9992 26.4747 16.8224 26.5556 16.6277C26.6366 16.433 26.6783 16.2242 26.6783 16.0133C26.6783 15.8024 26.6366 15.5936 26.5556 15.3989C26.4747 15.2042 26.356 15.0274 26.2065 14.8788L26.2038 14.8761L25.2705 13.9428L25.2678 13.9401C24.4735 13.1413 24.0273 12.0606 24.0266 10.9341V9.59996C24.0266 9.17562 23.8581 8.76865 23.558 8.46859C23.2579 8.16854 22.851 7.99996 22.4266 7.99996H21.0933C19.9667 7.99932 18.8853 7.55313 18.0865 6.75875L18.0838 6.75611L17.1505 5.82277L17.1478 5.82012C16.9992 5.67059 16.8224 5.55193 16.6277 5.47096C16.433 5.38999 16.2242 5.34831 16.0133 5.34831ZM14.375 3.00872C14.8942 2.7928 15.451 2.68164 16.0133 2.68164C16.5756 2.68164 17.1324 2.7928 17.6516 3.00872C18.1702 3.22436 18.641 3.54025 19.0372 3.93825C19.0377 3.93877 19.0382 3.93929 19.0388 3.93981L19.9668 4.86784C19.9672 4.86821 19.9675 4.86858 19.9679 4.86895C20.2673 5.16607 20.6719 5.33296 21.0937 5.3333H22.4266C23.5582 5.3333 24.6435 5.78282 25.4436 6.58298C26.2438 7.38313 26.6933 8.46837 26.6933 9.59996V10.9325C26.6935 11.3544 26.8604 11.7591 27.1575 12.0585C27.1579 12.059 27.1583 12.0594 27.1588 12.0598L28.0868 12.9878C28.0872 12.9883 28.0877 12.9887 28.0881 12.9891C28.4862 13.3854 28.8022 13.8563 29.0179 14.375C29.2338 14.8942 29.345 15.451 29.345 16.0133C29.345 16.5756 29.2338 17.1324 29.0179 17.6516C28.8022 18.1702 28.4863 18.6411 28.0883 19.0373C28.0878 19.0378 28.0873 19.0383 28.0868 19.0388L27.1588 19.9668C27.1584 19.9671 27.1581 19.9675 27.1577 19.9678C26.8605 20.2673 26.6935 20.6721 26.6933 21.0941V22.4266C26.6933 23.5582 26.2438 24.6435 25.4436 25.4436C24.6435 26.2438 23.5582 26.6933 22.4266 26.6933H21.0941C20.6721 26.6935 20.2673 26.8605 19.9678 27.1577C19.9675 27.1581 19.9671 27.1584 19.9668 27.1588L19.0388 28.0868C19.0383 28.0873 19.0378 28.0878 19.0373 28.0883C18.6411 28.4863 18.1702 28.8022 17.6516 29.0179C17.1324 29.2338 16.5756 29.345 16.0133 29.345C15.451 29.345 14.8942 29.2338 14.375 29.0179C13.8563 28.8022 13.3854 28.4862 12.9891 28.0881C12.9887 28.0877 12.9883 28.0872 12.9878 28.0868L12.0598 27.1588C12.0594 27.1583 12.059 27.1579 12.0585 27.1575C11.7591 26.8604 11.3544 26.6935 10.9325 26.6933H9.59996C8.46837 26.6933 7.38313 26.2438 6.58298 25.4436C5.78282 24.6435 5.3333 23.5582 5.3333 22.4266V21.0937C5.33296 20.6719 5.16607 20.2673 4.86895 19.9679C4.86858 19.9675 4.86821 19.9672 4.86784 19.9668L3.93981 19.0388C3.93929 19.0382 3.93877 19.0377 3.93825 19.0372C3.54025 18.641 3.22436 18.1702 3.00872 17.6516C2.7928 17.1324 2.68164 16.5756 2.68164 16.0133C2.68164 15.451 2.7928 14.8942 3.00872 14.375C3.22439 13.8564 3.54032 13.3855 3.93839 12.9893C3.93886 12.9888 3.93934 12.9883 3.93981 12.9878L4.86784 12.0598C4.86823 12.0594 4.86861 12.059 4.86899 12.0587C5.16608 11.7593 5.33296 11.3547 5.3333 10.9329V9.59996C5.3333 8.46837 5.78282 7.38313 6.58298 6.58298C7.38313 5.78282 8.46837 5.3333 9.59996 5.3333H10.9329C11.3547 5.33296 11.7593 5.16608 12.0587 4.86899C12.059 4.86861 12.0594 4.86823 12.0598 4.86784L12.9878 3.93981C12.9883 3.93934 12.9888 3.93886 12.9893 3.93839C13.3855 3.54032 13.8564 3.22439 14.375 3.00872Z"/></symbol>
	<symbol id="Return" xmlns="http://www.w3.org/2000/svg" viewBox="0 0 34 30" stroke="currentColor" fill="none"><path d="M32 6.66699H2M32 6.66699L27 11.667M32 6.66699L27 1.66699M7 28.3337L2 23.3337M2 23.3337L7 18.3337M2 23.3337H32" stroke-linecap="round" stroke-linejoin="round"/></symbol>			
	<symbol id="CreditCards" xmlns="http://www.w3.org/2000/svg" viewBox="0 0 24 24" fill="currentColor"><path fill-rule="evenodd" clip-rule="evenodd" d="M6 6C5.46957 6 4.96086 6.21071 4.58579 6.58579C4.21071 6.96086 4 7.46957 4 8V16C4 16.5304 4.21071 17.0391 4.58579 17.4142C4.96086 17.7893 5.46957 18 6 18H18C18.5304 18 19.0391 17.7893 19.4142 17.4142C19.7893 17.0391 20 16.5304 20 16V8C20 7.46957 19.7893 6.96086 19.4142 6.58579C19.0391 6.21071 18.5304 6 18 6H6ZM3.17157 5.17157C3.92172 4.42143 4.93913 4 6 4H18C19.0609 4 20.0783 4.42143 20.8284 5.17157C21.5786 5.92172 22 6.93913 22 8V16C22 17.0609 21.5786 18.0783 20.8284 18.8284C20.0783 19.5786 19.0609 20 18 20H6C4.93913 20 3.92172 19.5786 3.17157 18.8284C2.42143 18.0783 2 17.0609 2 16V8C2 6.93913 2.42143 5.92172 3.17157 5.17157Z"/><path fill-rule="evenodd" clip-rule="evenodd" d="M2 10C2 9.44772 2.44772 9 3 9H21C21.5523 9 22 9.44772 22 10C22 10.5523 21.5523 11 21 11H3C2.44772 11 2 10.5523 2 10Z"/><path fill-rule="evenodd" clip-rule="evenodd" d="M6 15C6 14.4477 6.44772 14 7 14H7.01C7.56229 14 8.01 14.4477 8.01 15C8.01 15.5523 7.56229 16 7.01 16H7C6.44772 16 6 15.5523 6 15Z"/><path fill-rule="evenodd" clip-rule="evenodd" d="M10 15C10 14.4477 10.4477 14 11 14H13C13.5523 14 14 14.4477 14 15C14 15.5523 13.5523 16 13 16H11C10.4477 16 10 15.5523 10 15Z"/></symbol>
	<symbol id="Deco" xmlns="http://www.w3.org/2000/svg" viewBox="0 0 58 20" stroke="currentColor" fill="none"><path d="M49.5359 16.9432C47.3666 16.9432 46.9948 14.8019 47.6797 12.7178C48.2221 11.0615 49.5066 9.31991 51.4201 9.31991C53.676 9.31991 53.9039 11.6038 53.247 13.6026C52.6753 15.3162 51.3908 16.9432 49.5359 16.9432ZM48.879 19.9973C52.6473 19.9973 56.0159 17.9133 57.3578 14.1449C58.7569 10.1767 57.1859 6.2085 52.0477 6.2085C47.9369 6.2085 44.7962 8.77758 43.5969 12.1755C42.2551 16.0011 43.7115 19.9973 48.879 19.9973ZM36.3747 19.9973C37.8591 19.9973 39.3729 19.6829 40.4282 19.2271C40.8 18.1998 40.828 17.2004 40.5428 16.201C39.8006 16.4862 38.7732 16.7727 37.7165 16.7727C34.861 16.7727 34.6051 14.6606 35.2048 12.8617C35.8617 10.9496 37.574 9.40786 40.287 9.40786C41.0012 9.40786 41.6861 9.52246 42.1138 9.77963C42.856 8.78025 43.2838 7.78086 43.3704 6.7535C42.7428 6.46834 41.6861 6.21117 40.3163 6.21117C35.863 6.21117 32.3505 8.80956 31.0953 12.406C29.896 15.8039 30.8101 20 36.3774 20L36.3747 19.9973ZM21.0442 11.8037C21.8143 10.0901 23.0136 9.09206 24.5846 9.09206C25.9838 9.09206 26.2116 9.86225 25.9838 10.4619C25.6413 11.2894 24.47 11.8037 21.0442 11.8037ZM22.2714 19.9973C23.7278 19.9973 25.7826 19.7122 27.4962 18.8554C27.7813 17.9133 27.7534 16.9712 27.4389 15.9998C26.3542 16.5421 24.8405 16.8566 23.4707 16.8566C21.4439 16.8566 20.3299 16.1997 20.3592 14.5447C25.8972 14.6873 28.7807 13.6879 29.7228 11.2334C30.6649 8.7496 29.0379 6.2085 25.1829 6.2085C21.0721 6.2085 18.046 9.14935 16.932 12.3181C15.7621 15.6867 16.5043 19.9973 22.2701 19.9973H22.2714ZM5.72293 19.9973C9.52059 19.9973 11.6806 18.2557 14.1924 12.9177C15.5622 9.97684 16.7335 7.09329 18.0753 4.23905L19.6743 4.7534C20.1021 4.89598 20.3313 4.6388 20.1314 4.23905L18.1899 0.270827C18.0473 -0.0143302 17.7329 -0.0436454 17.533 0.0429678L12.708 1.86984C12.3082 2.01242 12.3362 2.38419 12.7359 2.49745L14.1631 2.95451C12.9931 5.6102 11.5367 9.60641 10.3654 12.1182C9.05155 14.9165 8.39595 16.8859 6.16933 16.8859C3.9427 16.8859 3.57093 15.1443 4.51301 12.6605C5.59768 9.77697 7.42455 8.92016 9.5086 9.51979C10.0802 8.72028 10.508 7.52103 10.6785 6.43636C10.0789 6.26447 9.36469 6.2085 8.76639 6.2085C5.3978 6.2085 2.05719 7.95009 0.687373 11.6038C-1.0822 16.3143 0.554122 19.9973 5.7216 19.9973H5.72293Z" fill="currentColor"/></symbol>
	<symbol id="Discord" xmlns="http://www.w3.org/2000/svg" viewBox="0 0 32 32" fill="currentColor"><path fill-rule="evenodd" clip-rule="evenodd" d="M10.1144 14.1144C10.6145 13.6143 11.2928 13.3333 12 13.3333C12.7072 13.3333 13.3855 13.6143 13.8856 14.1144C14.3857 14.6145 14.6667 15.2928 14.6667 16C14.6667 16.7072 14.3857 17.3855 13.8856 17.8856C13.3855 18.3857 12.7072 18.6667 12 18.6667C11.2928 18.6667 10.6145 18.3857 10.1144 17.8856C9.61429 17.3855 9.33333 16.7072 9.33333 16C9.33333 15.2928 9.61429 14.6145 10.1144 14.1144Z"/><path fill-rule="evenodd" clip-rule="evenodd" d="M18.1144 14.1144C18.6145 13.6143 19.2928 13.3333 20 13.3333C20.7072 13.3333 21.3855 13.6143 21.8856 14.1144C22.3857 14.6145 22.6667 15.2928 22.6667 16C22.6667 16.7072 22.3857 17.3855 21.8856 17.8856C21.3855 18.3857 20.7072 18.6667 20 18.6667C19.2928 18.6667 18.6145 18.3857 18.1144 17.8856C17.6143 17.3855 17.3333 16.7072 17.3333 16C17.3333 15.2928 17.6143 14.6145 18.1144 14.1144Z"/><path fill-rule="evenodd" clip-rule="evenodd" d="M18.81 4.73186C19.0601 4.23712 19.5902 3.94872 20.1414 4.00752C22.2331 4.23063 24.551 4.69893 26.7621 6.2393C26.9912 6.39888 27.1644 6.62634 27.2573 6.8896C28.6195 10.7494 29.3689 14.129 29.6593 16.8589C29.9443 19.5368 29.805 21.7447 29.2379 23.162C29.2242 23.1964 29.209 23.2302 29.1924 23.2633C28.6969 24.2536 27.9474 25.3864 27.0094 26.2923C26.091 27.1791 24.8302 28 23.3333 28C22.8608 28 22.4898 27.788 22.3107 27.6739C22.0915 27.5341 21.888 27.3604 21.7106 27.1896C21.352 26.8443 20.9848 26.3986 20.6577 25.9313C20.3289 25.4616 20.0134 24.9313 19.7748 24.4037C19.5498 23.9065 19.3333 23.2832 19.3333 22.6667C19.3333 21.9303 19.9303 21.3333 20.6667 21.3333C21.403 21.3333 22 21.9303 22 22.6667C22 22.7168 22.0335 22.9269 22.2044 23.3046C22.3616 23.652 22.5878 24.0384 22.8423 24.4021C23.0985 24.7681 23.3564 25.0724 23.5603 25.2687C23.5748 25.2827 23.5885 25.2956 23.6014 25.3075C24.0526 25.2232 24.5825 24.9288 25.157 24.374C25.8148 23.7388 26.3876 22.8958 26.7809 22.123C27.0917 21.2998 27.2731 19.6354 27.0077 17.1411C26.7526 14.7437 26.0994 11.7137 24.8888 8.19623C23.5851 7.37691 22.2091 6.99039 20.7657 6.77412L19.894 8.49881C19.6296 9.02184 19.0547 9.31093 18.4772 9.21123C16.8392 8.92847 15.1648 8.92847 13.5268 9.21123C12.9499 9.31082 12.3755 9.02244 12.1108 8.50029L11.2355 6.77394C9.79167 6.99018 8.41523 7.37668 7.11123 8.19624C5.90062 11.7137 5.24745 14.7437 4.99235 17.1411C4.72693 19.6354 4.90826 21.2998 5.21912 22.123C5.61239 22.8958 6.18517 23.7388 6.84303 24.374C7.4175 24.9288 7.94742 25.2232 8.39859 25.3075C8.41148 25.2956 8.4252 25.2827 8.43973 25.2687C8.64364 25.0724 8.90147 24.7681 9.15769 24.4021C9.41224 24.0384 9.63844 23.652 9.79561 23.3046C9.87377 23.1318 9.92828 22.9831 9.96188 22.8628C9.97844 22.8035 9.98841 22.7564 9.99405 22.7211C9.99682 22.7037 9.99835 22.6904 9.99917 22.681L9.99989 22.6703L9.99999 22.6676L10 22.6669C10 22.6669 10 22.6668 10 22.6668C10 22.6667 10 22.6667 10 22.6667C10 21.9303 10.597 21.3333 11.3333 21.3333C12.0697 21.3333 12.6667 21.9303 12.6667 22.6667C12.6667 23.2832 12.4502 23.9065 12.2252 24.4037C11.9866 24.9313 11.6711 25.4616 11.3423 25.9313C11.0152 26.3986 10.648 26.8443 10.2894 27.1896C10.112 27.3604 9.90854 27.5341 9.68929 27.6739C9.5102 27.788 9.13922 28 8.66667 28C7.16983 28 5.90902 27.1791 4.99064 26.2923C4.05257 25.3864 3.30313 24.2536 2.80761 23.2633C2.79103 23.2302 2.77584 23.1964 2.76208 23.162C2.19498 21.7447 2.05571 19.5368 2.34065 16.8589C2.63114 14.129 3.38048 10.7494 4.74267 6.8896C4.83558 6.62634 5.00878 6.39888 5.23785 6.2393C7.44901 4.69893 9.76691 4.23063 11.8586 4.00752C12.4092 3.94879 12.9388 4.2365 13.1892 4.73038L14.0574 6.44267C15.3492 6.29582 16.6535 6.29577 17.9454 6.44252L18.81 4.73186ZM8.25602 25.4251C8.23864 25.4362 8.24115 25.4323 8.26145 25.4215C8.25933 25.423 8.25752 25.4242 8.25602 25.4251ZM23.744 25.4251C23.7425 25.4242 23.7407 25.423 23.7386 25.4215C23.7589 25.4323 23.7614 25.4362 23.744 25.4251Z"/><path fill-rule="evenodd" clip-rule="evenodd" d="M8.0513 21.6337C8.2536 20.9257 8.99158 20.5157 9.69963 20.718C14.1269 21.9829 17.8731 21.9829 22.3004 20.718C23.0084 20.5157 23.7464 20.9257 23.9487 21.6337C24.151 22.3418 23.741 23.0797 23.033 23.282C18.1269 24.6838 13.8731 24.6838 8.96704 23.282C8.25899 23.0797 7.849 22.3418 8.0513 21.6337Z"/></symbol>
	<symbol id="FilterList" xmlns="http://www.w3.org/2000/svg" viewBox="0 0 16 16" fill="none"><path d="M6.66667 12H9.33333V10.6667H6.66667V12ZM2 4V5.33333H14V4H2ZM4 8.66667H12V7.33333H4V8.66667Z" fill="currentColor"/></symbol>
	<symbol id="Trash" xmlns="http://www.w3.org/2000/svg" width="20" height="20" viewBox="0 0 20 20" fill="none"><path fill-rule="evenodd" clip-rule="evenodd" d="M7.15482 2.15483C7.46738 1.84227 7.89131 1.66667 8.33333 1.66667H11.6667C12.1087 1.66667 12.5326 1.84227 12.8452 2.15483C13.1577 2.46739 13.3333 2.89131 13.3333 3.33334V5H15.8236C15.8295 4.99994 15.8353 4.99994 15.8412 5H16.6667C17.1269 5 17.5 5.3731 17.5 5.83334C17.5 6.29357 17.1269 6.66667 16.6667 6.66667H16.6001L15.833 15.8715C15.8231 16.5207 15.5609 17.1413 15.1011 17.6011C14.6323 18.0699 13.9964 18.3333 13.3333 18.3333H6.66667C6.00362 18.3333 5.36774 18.0699 4.8989 17.6011C4.43906 17.1413 4.17685 16.5207 4.16696 15.8715L3.39989 6.66667H3.33333C2.8731 6.66667 2.5 6.29357 2.5 5.83334C2.5 5.3731 2.8731 5 3.33333 5H4.15878C4.16467 4.99994 4.17055 4.99994 4.17641 5H6.66667V3.33334C6.66667 2.89131 6.84226 2.46739 7.15482 2.15483ZM5.07233 6.66667L5.83045 15.7641C5.83237 15.7871 5.83333 15.8102 5.83333 15.8333C5.83333 16.0543 5.92113 16.2663 6.07741 16.4226C6.23369 16.5789 6.44565 16.6667 6.66667 16.6667H13.3333C13.5543 16.6667 13.7663 16.5789 13.9226 16.4226C14.0789 16.2663 14.1667 16.0543 14.1667 15.8333C14.1667 15.8102 14.1676 15.7871 14.1695 15.7641L14.9277 6.66667H5.07233ZM11.6667 5H8.33333V3.33334H11.6667V5ZM8.33333 8.33334C8.79357 8.33334 9.16667 8.70643 9.16667 9.16667V14.1667C9.16667 14.6269 8.79357 15 8.33333 15C7.8731 15 7.5 14.6269 7.5 14.1667V9.16667C7.5 8.70643 7.8731 8.33334 8.33333 8.33334ZM11.6667 8.33334C12.1269 8.33334 12.5 8.70643 12.5 9.16667V14.1667C12.5 14.6269 12.1269 15 11.6667 15C11.2064 15 10.8333 14.6269 10.8333 14.1667V9.16667C10.8333 8.70643 11.2064 8.33334 11.6667 8.33334Z" fill="currentColor"/></symbol>
	<symbol id="WhatsApp" xmlns="http://www.w3.org/2000/svg" viewBox="0 0 32 32" fill="currentColor"><path fill-rule="evenodd" clip-rule="evenodd" d="M22.9323 7.90694C20.9558 6.22108 18.432 5.31448 15.8345 5.35728C13.237 5.40008 10.7444 6.38934 8.82449 8.13941C6.90458 9.88948 5.68934 12.28 5.40682 14.8625C5.1243 17.4449 5.79392 20.0417 7.29002 22.1655C7.55783 22.5456 7.60822 23.0378 7.42302 23.4644L6.21292 26.2513L10.4994 25.4874C10.7781 25.4377 11.0654 25.478 11.3197 25.6025C13.6528 26.7449 16.3227 26.9965 18.8283 26.3102C21.3338 25.6239 23.5028 24.0467 24.9281 21.8748C26.3534 19.7029 26.9371 17.0855 26.5696 14.5138C26.2022 11.942 24.9088 9.5928 22.9323 7.90694ZM15.7905 2.69098C19.0374 2.63748 22.1922 3.77072 24.6628 5.87805C27.1335 7.98537 28.7502 10.9219 29.2095 14.1366C29.6688 17.3512 28.9392 20.623 27.1575 23.3379C25.3759 26.0528 22.6647 28.0242 19.5328 28.8821C16.5444 29.7007 13.3691 29.4518 10.5508 28.1869L4.23394 29.3127C3.75031 29.3988 3.25846 29.2121 2.95388 28.8267C2.64929 28.4413 2.58133 27.9196 2.77698 27.469L4.68893 23.0657C3.11582 20.5372 2.43052 17.5472 2.75597 14.5725C3.10912 11.3444 4.62818 8.35622 7.02806 6.16864C9.42795 3.98106 12.5437 2.74448 15.7905 2.69098Z"/><path fill-rule="evenodd" clip-rule="evenodd" d="M11.2525 10.5858C11.6275 10.2107 12.1362 10 12.6667 10C13.1971 10 13.7058 10.2107 14.0809 10.5858C14.456 10.9609 14.6667 11.4696 14.6667 12V13.3333C14.6667 13.8638 14.456 14.3725 14.0809 14.7475C13.946 14.8824 13.7939 14.996 13.6296 15.0863C13.8915 15.8388 14.3213 16.5304 14.8954 17.1046C15.4696 17.6787 16.1612 18.1085 16.9137 18.3704C17.004 18.2061 17.1176 18.054 17.2525 17.9191C17.6275 17.544 18.1362 17.3333 18.6667 17.3333H20C20.5304 17.3333 21.0391 17.544 21.4142 17.9191C21.7893 18.2942 22 18.8029 22 19.3333C22 19.8638 21.7893 20.3725 21.4142 20.7475C21.0391 21.1226 20.5304 21.3333 20 21.3333H18.6667C16.5449 21.3333 14.5101 20.4905 13.0098 18.9902C11.5095 17.4899 10.6667 15.4551 10.6667 13.3333V12C10.6667 11.4696 10.8774 10.9609 11.2525 10.5858Z"/></symbol>
	<symbol id="ArrowsPointingOut" xmlns="http://www.w3.org/2000/svg" fill="currentColor" viewBox="0 0 32 32"><path fill-rule="evenodd" clip-rule="evenodd" d="M2.66675 22.6668C2.66675 21.9304 3.2637 21.3335 4.00008 21.3335H28.0001C28.7365 21.3335 29.3334 21.9304 29.3334 22.6668C29.3334 23.4032 28.7365 24.0002 28.0001 24.0002H4.00008C3.2637 24.0002 2.66675 23.4032 2.66675 22.6668Z"/><path fill-rule="evenodd" clip-rule="evenodd" d="M8.94289 4.39052C9.46359 4.91122 9.46359 5.75544 8.94289 6.27614L5.8857 9.33333L8.94289 12.3905C9.46359 12.9112 9.46359 13.7554 8.94289 14.2761C8.42219 14.7968 7.57797 14.7968 7.05727 14.2761L3.05727 10.2761C2.53657 9.75544 2.53657 8.91122 3.05727 8.39052L7.05727 4.39052C7.57797 3.86983 8.42219 3.86983 8.94289 4.39052Z"/><path fill-rule="evenodd" clip-rule="evenodd" d="M2.66675 9.33333C2.66675 8.59695 3.2637 8 4.00008 8H28.0001C28.7365 8 29.3334 8.59695 29.3334 9.33333C29.3334 10.0697 28.7365 10.6667 28.0001 10.6667H4.00008C3.2637 10.6667 2.66675 10.0697 2.66675 9.33333Z"/><path fill-rule="evenodd" clip-rule="evenodd" d="M23.0573 17.724C23.578 17.2033 24.4222 17.2033 24.9429 17.724L28.9429 21.724C29.4636 22.2447 29.4636 23.0889 28.9429 23.6096L24.9429 27.6096C24.4222 28.1303 23.578 28.1303 23.0573 27.6096C22.5366 27.0889 22.5366 26.2447 23.0573 25.724L26.1145 22.6668L23.0573 19.6096C22.5366 19.0889 22.5366 18.2447 23.0573 17.724Z"/></symbol>
	<symbol id="Star" xmlns="http://www.w3.org/2000/svg" viewBox="0 0 24 24" stroke-width="1.5"><path stroke-linecap="round" stroke-linejoin="round" d="M11.48 3.499a.562.562 0 011.04 0l2.125 5.111a.563.563 0 00.475.345l5.518.442c.499.04.701.663.321.988l-4.204 3.602a.563.563 0 00-.182.557l1.285 5.385a.562.562 0 01-.84.61l-4.725-2.885a.563.563 0 00-.586 0L6.982 20.54a.562.562 0 01-.84-.61l1.285-5.386a.562.562 0 00-.182-.557l-4.204-3.602a.563.563 0 01.321-.988l5.518-.442a.563.563 0 00.475-.345L11.48 3.5z" /></symbol>
	<symbol id="Ruler" xmlns="http://www.w3.org/2000/svg" viewBox="0 0 32 32" fill="currentColor"><path fill-rule="evenodd" clip-rule="evenodd" d="M21.7238 3.05715C22.2445 2.53645 23.0887 2.53645 23.6094 3.05715L28.9428 8.39048C29.4635 8.91118 29.4635 9.7554 28.9428 10.2761L10.2761 28.9428C9.7554 29.4635 8.91118 29.4635 8.39048 28.9428L3.05715 23.6094C2.53645 23.0887 2.53645 22.2445 3.05715 21.7238L21.7238 3.05715ZM5.88558 22.6666L9.33329 26.1143L26.1143 9.33329L22.6666 5.88558L5.88558 22.6666Z"/><path fill-rule="evenodd" clip-rule="evenodd" d="M18.3905 6.39052C18.9112 5.86983 19.7554 5.86983 20.2761 6.39052L22.2761 8.39052C22.7968 8.91122 22.7968 9.75544 22.2761 10.2761C21.7554 10.7968 20.9112 10.7968 20.3905 10.2761L18.3905 8.27614C17.8698 7.75544 17.8698 6.91122 18.3905 6.39052Z"/><path fill-rule="evenodd" clip-rule="evenodd" d="M14.3905 10.3905C14.9112 9.86983 15.7554 9.86983 16.2761 10.3905L18.2761 12.3905C18.7968 12.9112 18.7968 13.7554 18.2761 14.2761C17.7554 14.7968 16.9112 14.7968 16.3905 14.2761L14.3905 12.2761C13.8698 11.7554 13.8698 10.9112 14.3905 10.3905Z"/><path fill-rule="evenodd" clip-rule="evenodd" d="M10.3905 14.3905C10.9112 13.8698 11.7554 13.8698 12.2761 14.3905L14.2761 16.3905C14.7968 16.9112 14.7968 17.7554 14.2761 18.2761C13.7554 18.7968 12.9112 18.7968 12.3905 18.2761L10.3905 16.2761C9.86983 15.7554 9.86983 14.9112 10.3905 14.3905Z"/><path fill-rule="evenodd" clip-rule="evenodd" d="M6.39052 18.3905C6.91122 17.8698 7.75544 17.8698 8.27614 18.3905L10.2761 20.3905C10.7968 20.9112 10.7968 21.7554 10.2761 22.2761C9.75544 22.7968 8.91122 22.7968 8.39052 22.2761L6.39052 20.2761C5.86983 19.7554 5.86983 18.9112 6.39052 18.3905Z"/></symbol>
	<symbol id="Message" xmlns="http://www.w3.org/2000/svg" viewBox="0 0 32 32" fill="currentColor"><path fill-rule="evenodd" clip-rule="evenodd" d="M9.33337 12C9.33337 11.2636 9.93033 10.6666 10.6667 10.6666H21.3334C22.0698 10.6666 22.6667 11.2636 22.6667 12C22.6667 12.7363 22.0698 13.3333 21.3334 13.3333H10.6667C9.93033 13.3333 9.33337 12.7363 9.33337 12Z"/><path fill-rule="evenodd" clip-rule="evenodd" d="M9.33337 17.3333C9.33337 16.597 9.93033 16 10.6667 16H18.6667C19.4031 16 20 16.597 20 17.3333C20 18.0697 19.4031 18.6667 18.6667 18.6667H10.6667C9.93033 18.6667 9.33337 18.0697 9.33337 17.3333Z"/><path fill-rule="evenodd" clip-rule="evenodd" d="M7.99996 6.66667C7.29272 6.66667 6.61444 6.94762 6.11434 7.44772C5.61424 7.94781 5.33329 8.62609 5.33329 9.33333V20C5.33329 20.7072 5.61424 21.3855 6.11434 21.8856C6.61444 22.3857 7.29272 22.6667 7.99996 22.6667H10.6666C11.403 22.6667 12 23.2636 12 24V25.6451L16.6473 22.8567C16.8545 22.7323 17.0916 22.6667 17.3333 22.6667H24C24.7072 22.6667 25.3855 22.3857 25.8856 21.8856C26.3857 21.3855 26.6666 20.7072 26.6666 20V9.33333C26.6666 8.62609 26.3857 7.94781 25.8856 7.44772C25.3855 6.94762 24.7072 6.66667 24 6.66667H7.99996ZM4.22872 5.5621C5.22892 4.5619 6.58547 4 7.99996 4H24C25.4144 4 26.771 4.5619 27.7712 5.5621C28.7714 6.56229 29.3333 7.91885 29.3333 9.33333V20C29.3333 21.4145 28.7714 22.771 27.7712 23.7712C26.771 24.7714 25.4144 25.3333 24 25.3333H17.7026L11.3526 29.1433C10.9407 29.3905 10.4277 29.3969 10.0097 29.1603C9.59168 28.9236 9.33329 28.4804 9.33329 28V25.3333H7.99996C6.58547 25.3333 5.22892 24.7714 4.22872 23.7712C3.22853 22.771 2.66663 21.4145 2.66663 20V9.33333C2.66663 7.91885 3.22853 6.56229 4.22872 5.5621Z"/></symbol>
	<symbol id="Close" xmlns="http://www.w3.org/2000/svg" viewBox="0 0 24 24" fill="currentColor"><path fill-rule="evenodd" clip-rule="evenodd" d="M5.29289 5.29289C5.68342 4.90237 6.31658 4.90237 6.70711 5.29289L12 10.5858L17.2929 5.29289C17.6834 4.90237 18.3166 4.90237 18.7071 5.29289C19.0976 5.68342 19.0976 6.31658 18.7071 6.70711L13.4142 12L18.7071 17.2929C19.0976 17.6834 19.0976 18.3166 18.7071 18.7071C18.3166 19.0976 17.6834 19.0976 17.2929 18.7071L12 13.4142L6.70711 18.7071C6.31658 19.0976 5.68342 19.0976 5.29289 18.7071C4.90237 18.3166 4.90237 17.6834 5.29289 17.2929L10.5858 12L5.29289 6.70711C4.90237 6.31658 4.90237 5.68342 5.29289 5.29289Z"/></symbol>
	<symbol id="Zoom" xmlns="http://www.w3.org/2000/svg" viewBox="0 0 32 32" fill="currentColor"><path fill-rule="evenodd" clip-rule="evenodd" d="M9.25138 3.47862C10.5455 2.94257 11.9326 2.66667 13.3333 2.66667C14.7341 2.66667 16.1212 2.94257 17.4153 3.47862C18.7094 4.01467 19.8853 4.80037 20.8758 5.79086C21.8663 6.78135 22.652 7.95724 23.188 9.25138C23.7241 10.5455 24 11.9326 24 13.3333C24 14.7341 23.7241 16.1212 23.188 17.4153C22.652 18.7094 21.8663 19.8853 20.8758 20.8758C19.8853 21.8663 18.7094 22.652 17.4153 23.188C16.1212 23.7241 14.7341 24 13.3333 24C11.9326 24 10.5455 23.7241 9.25138 23.188C7.95724 22.652 6.78135 21.8663 5.79086 20.8758C4.80037 19.8853 4.01467 18.7094 3.47862 17.4153C2.94257 16.1212 2.66667 14.7341 2.66667 13.3333C2.66667 11.9326 2.94257 10.5455 3.47862 9.25138C4.01467 7.95724 4.80037 6.78135 5.79086 5.79086C6.78135 4.80037 7.95724 4.01467 9.25138 3.47862ZM13.3333 5.33333C12.2828 5.33333 11.2425 5.54026 10.2719 5.9423C9.30126 6.34433 8.41935 6.93361 7.67648 7.67648C6.93361 8.41935 6.34433 9.30126 5.9423 10.2719C5.54026 11.2425 5.33333 12.2828 5.33333 13.3333C5.33333 14.3839 5.54026 15.4242 5.9423 16.3948C6.34433 17.3654 6.93361 18.2473 7.67648 18.9902C8.41935 19.7331 9.30126 20.3223 10.2719 20.7244C11.2425 21.1264 12.2828 21.3333 13.3333 21.3333C14.3839 21.3333 15.4242 21.1264 16.3948 20.7244C17.3654 20.3223 18.2473 19.7331 18.9902 18.9902C19.7331 18.2473 20.3223 17.3654 20.7244 16.3948C21.1264 15.4242 21.3333 14.3839 21.3333 13.3333C21.3333 12.2828 21.1264 11.2425 20.7244 10.2719C20.3223 9.30126 19.7331 8.41935 18.9902 7.67648C18.2473 6.93361 17.3654 6.34433 16.3948 5.9423C15.4242 5.54026 14.3839 5.33333 13.3333 5.33333Z"/><path fill-rule="evenodd" clip-rule="evenodd" d="M8 13.3333C8 12.597 8.59695 12 9.33333 12H17.3333C18.0697 12 18.6667 12.597 18.6667 13.3333C18.6667 14.0697 18.0697 14.6667 17.3333 14.6667H9.33333C8.59695 14.6667 8 14.0697 8 13.3333Z"/><path fill-rule="evenodd" clip-rule="evenodd" d="M13.3333 8C14.0697 8 14.6667 8.59695 14.6667 9.33333V17.3333C14.6667 18.0697 14.0697 18.6667 13.3333 18.6667C12.597 18.6667 12 18.0697 12 17.3333V9.33333C12 8.59695 12.597 8 13.3333 8Z"/><path fill-rule="evenodd" clip-rule="evenodd" d="M19.0572 19.0572C19.5779 18.5365 20.4221 18.5365 20.9428 19.0572L28.9428 27.0572C29.4635 27.5779 29.4635 28.4221 28.9428 28.9428C28.4221 29.4635 27.5779 29.4635 27.0572 28.9428L19.0572 20.9428C18.5365 20.4221 18.5365 19.5779 19.0572 19.0572Z"/></symbol>
	<symbol id="Twitter" viewBox="0 0 32 32" fill="currentColor" xmlns="http://www.w3.org/2000/svg">
		<path fill-rule="evenodd" clip-rule="evenodd" d="M25.7085 5.17383C25.8226 5.14229 25.9346 5.1116 26.0448 5.08143C27.0071 4.8178 27.8286 4.59278 28.6991 4.17252C28.9351 4.04471 29.2112 3.98713 29.4952 4.02185C30.164 4.10361 30.6667 4.67152 30.6667 5.34533V5.34667C30.6667 5.46914 30.6499 5.58905 30.6181 5.70365C30.3614 6.70484 29.6856 8.08065 29.1556 9.12166C29.0163 9.39519 28.8888 9.64185 28.7722 9.86768C28.6425 10.1187 28.5261 10.3439 28.4215 10.5518C28.3434 10.707 28.2842 10.8285 28.2426 10.919C28.232 12.6541 27.9933 14.3807 27.5322 16.0542L27.5304 16.0606C25.8937 21.8868 21.6085 25.795 16.4174 27.3031L16.4171 27.3031C11.8358 28.6331 6.66407 27.6972 2.02863 25.1707C1.4849 24.8744 1.21677 24.2427 1.38133 23.6457C1.54588 23.0487 2.0998 22.6436 2.71858 22.6677C4.59327 22.7406 6.25872 22.2699 7.93115 21.4114C6.20014 20.3418 4.95683 19.0951 4.10438 17.7483C2.9282 15.89 2.55864 13.9398 2.57579 12.2033C2.59283 10.4771 2.99109 8.94005 3.37455 7.84784C3.56758 7.29803 3.76042 6.8509 3.90746 6.53668C3.9811 6.37932 4.04359 6.25457 4.08934 6.16618C4.11223 6.12196 4.13097 6.08678 4.14486 6.06109L4.16199 6.02971L4.16767 6.01945L4.16977 6.0157L4.17062 6.01417C4.171 6.0135 4.17135 6.01287 5.33339 6.66667L4.17135 6.01287C4.39484 5.61565 4.80575 5.3601 5.26086 5.33531C5.71596 5.31051 6.1522 5.51991 6.41753 5.8905C8.39853 8.65753 11.326 10.351 14.6663 10.6301C14.651 7.82308 16.4169 5.41227 19.0258 4.43534C21.1915 3.62441 23.7548 3.53044 25.7085 5.17383ZM5.73392 9.20834C5.4743 10.0564 5.25343 11.1054 5.24233 12.2297C5.22914 13.5653 5.51108 14.9846 6.35765 16.3222C7.20231 17.6567 8.67167 19.009 11.1996 20.1111C11.6468 20.3061 11.9519 20.7298 11.9949 21.2158C12.0379 21.7018 11.812 22.1725 11.4059 22.443C10.137 23.2883 8.82865 24.0272 7.42567 24.5474C10.298 25.3864 13.1456 25.476 15.6734 24.7423M5.73392 9.20834C8.41858 11.9306 12.0496 13.4348 16.0342 13.3329C16.757 13.3144 17.3334 12.7231 17.3334 12V10.6667L17.3333 10.6484C17.3108 9.00681 18.3282 7.54404 19.961 6.93266C21.8151 6.23837 23.3524 6.44157 24.3355 7.55097C24.6786 7.93812 25.2146 8.09189 25.7108 7.94548C25.9884 7.86355 26.2807 7.78378 26.5839 7.70106C26.6992 7.66959 26.816 7.6377 26.9342 7.6051C26.8831 7.70696 26.8314 7.80926 26.7792 7.91167C26.6594 8.14697 26.5339 8.39013 26.4146 8.6212C26.2744 8.89273 26.1428 9.14756 26.0393 9.35333C25.9398 9.55108 25.8466 9.74167 25.7762 9.90182C25.7415 9.98065 25.7031 10.073 25.6709 10.1667C25.6704 10.1684 25.6697 10.1702 25.669 10.1723C25.6498 10.2277 25.5761 10.441 25.5761 10.696L25.5761 10.7034C25.5848 12.2707 25.3782 13.8317 24.9621 15.3428C23.5875 20.2319 20.028 23.4772 15.6737 24.7422"/>
	</symbol>
	<symbol id="Facebook" viewBox="0 0 32 32" fill="currentColor" xmlns="http://www.w3.org/2000/svg">
		<path fill-rule="evenodd" clip-rule="evenodd" d="M14.3431 5.00977C15.8434 3.50948 17.8783 2.66663 20 2.66663H24C24.7364 2.66663 25.3333 3.26358 25.3333 3.99996V9.33329C25.3333 10.0697 24.7364 10.6666 24 10.6666H20V12H24C24.4106 12 24.7983 12.1891 25.0509 12.5127C25.3036 12.8364 25.3931 13.2584 25.2935 13.6567L23.9602 18.99C23.8118 19.5836 23.2785 20 22.6667 20H20V28C20 28.7363 19.403 29.3333 18.6667 29.3333H13.3333C12.597 29.3333 12 28.7363 12 28V20H9.33333C8.59695 20 8 19.403 8 18.6666V13.3333C8 12.5969 8.59695 12 9.33333 12H12V10.6666C12 8.54489 12.8429 6.51006 14.3431 5.00977ZM20 5.33329C18.5855 5.33329 17.229 5.8952 16.2288 6.89539C15.2286 7.89558 14.6667 9.25214 14.6667 10.6666V13.3333C14.6667 14.0697 14.0697 14.6666 13.3333 14.6666H10.6667V17.3333H13.3333C14.0697 17.3333 14.6667 17.9302 14.6667 18.6666V26.6666H17.3333V18.6666C17.3333 17.9302 17.9303 17.3333 18.6667 17.3333H21.6256L22.2923 14.6666H18.6667C17.9303 14.6666 17.3333 14.0697 17.3333 13.3333V10.6666C17.3333 9.95938 17.6143 9.28111 18.1144 8.78101C18.6145 8.28091 19.2928 7.99996 20 7.99996H22.6667V5.33329H20Z"/>
	</symbol>
	<symbol id="Linkedin" viewBox="0 0 32 32" fill="currentColor" xmlns="http://www.w3.org/2000/svg">
		<path fill-rule="evenodd" clip-rule="evenodd" d="M8 6.66667C7.64638 6.66667 7.30724 6.80714 7.05719 7.05719C6.80714 7.30724 6.66667 7.64638 6.66667 8V24C6.66667 24.3536 6.80714 24.6928 7.05719 24.9428C7.30724 25.1929 7.64638 25.3333 8 25.3333H24C24.3536 25.3333 24.6928 25.1929 24.9428 24.9428C25.1929 24.6928 25.3333 24.3536 25.3333 24V8C25.3333 7.64638 25.1929 7.30724 24.9428 7.05719C24.6928 6.80714 24.3536 6.66667 24 6.66667H8ZM5.17157 5.17157C5.92172 4.42143 6.93913 4 8 4H24C25.0609 4 26.0783 4.42143 26.8284 5.17157C27.5786 5.92172 28 6.93913 28 8V24C28 25.0609 27.5786 26.0783 26.8284 26.8284C26.0783 27.5786 25.0609 28 24 28H8C6.93913 28 5.92172 27.5786 5.17157 26.8284C4.42143 26.0783 4 25.0609 4 24V8C4 6.93913 4.42143 5.92172 5.17157 5.17157Z"/>
		<path fill-rule="evenodd" clip-rule="evenodd" d="M10.6667 13.3334C11.4031 13.3334 12 13.9303 12 14.6667V21.3334C12 22.0698 11.4031 22.6667 10.6667 22.6667C9.93033 22.6667 9.33337 22.0698 9.33337 21.3334V14.6667C9.33337 13.9303 9.93033 13.3334 10.6667 13.3334Z"/>
		<path fill-rule="evenodd" clip-rule="evenodd" d="M10.6667 9.33337C11.4031 9.33337 12 9.93033 12 10.6667V10.68C12 11.4164 11.4031 12.0134 10.6667 12.0134C9.93033 12.0134 9.33337 11.4164 9.33337 10.68V10.6667C9.33337 9.93033 9.93033 9.33337 10.6667 9.33337Z"/>
		<path fill-rule="evenodd" clip-rule="evenodd" d="M16 13.3334C16.7363 13.3334 17.3333 13.9303 17.3333 14.6667V21.3334C17.3333 22.0698 16.7363 22.6667 16 22.6667C15.2636 22.6667 14.6666 22.0698 14.6666 21.3334V14.6667C14.6666 13.9303 15.2636 13.3334 16 13.3334Z"/>
		<path fill-rule="evenodd" clip-rule="evenodd" d="M15.8382 14.5049C16.5883 13.7548 17.6058 13.3334 18.6666 13.3334C19.7275 13.3334 20.7449 13.7548 21.4951 14.5049C22.2452 15.2551 22.6666 16.2725 22.6666 17.3334V21.3334C22.6666 22.0698 22.0697 22.6667 21.3333 22.6667C20.5969 22.6667 20 22.0698 20 21.3334V17.3334C20 16.9798 19.8595 16.6406 19.6094 16.3906C19.3594 16.1405 19.0202 16 18.6666 16C18.313 16 17.9739 16.1405 17.7238 16.3906C17.4738 16.6406 17.3333 16.9798 17.3333 17.3334C17.3333 18.0698 16.7363 18.6667 16 18.6667C15.2636 18.6667 14.6666 18.0698 14.6666 17.3334C14.6666 16.2725 15.0881 15.2551 15.8382 14.5049Z"/>
	</symbol>
	<symbol id="Tiktok" viewBox="0 0 32 32" fill="currentColor" xmlns="http://www.w3.org/2000/svg">
		<path fill-rule="evenodd" clip-rule="evenodd" d="M14.6666 4.00002C14.6666 3.26364 15.2636 2.66669 16 2.66669H21.444C22.0944 2.66669 22.6499 3.13595 22.7585 3.77719C22.9899 5.14231 23.6402 6.40166 24.6193 7.38071C25.5983 8.35977 26.8577 9.01005 28.2228 9.24144C28.864 9.35013 29.3333 9.90563 29.3333 10.556V15.9347C29.3333 16.3112 29.1741 16.6702 28.895 16.9229C28.6159 17.1757 28.243 17.2987 27.8683 17.2615C26.0469 17.0808 24.2834 16.56 22.6666 15.7338V19.3334C22.6662 21.212 22.1366 23.0529 21.1385 24.6444C20.1403 26.236 18.7141 27.5142 17.023 28.3326C15.332 29.1511 13.4446 29.4766 11.5772 29.2719C9.70969 29.0672 7.93763 28.3406 6.46402 27.1754C4.99041 26.0101 3.87484 24.4533 3.24513 22.6833C2.61542 20.9134 2.49703 19.0018 2.90353 17.1676C3.31003 15.3335 4.22498 13.6509 5.54355 12.3128C6.86212 10.9746 8.53098 10.0349 10.3589 9.60134C10.7557 9.50725 11.1737 9.59986 11.4935 9.85273C11.8134 10.1056 12 10.4909 12 10.8987V16.6667C12 17.0864 11.8024 17.4815 11.4666 17.7334C11.1939 17.9379 10.978 18.2088 10.8394 18.5202C10.7008 18.8317 10.6441 19.1734 10.6747 19.513C10.7053 19.8525 10.8222 20.1786 11.0143 20.4602C11.2064 20.7419 11.4673 20.9697 11.7722 21.1222C12.0771 21.2747 12.416 21.3467 12.7565 21.3313C13.0971 21.316 13.4281 21.2139 13.7181 21.0347C14.0081 20.8554 14.2475 20.605 14.4135 20.3073C14.5795 20.0095 14.6666 19.6743 14.6666 19.3334V4.00002ZM17.3333 5.33335V19.3334C17.3333 20.1288 17.13 20.9111 16.7426 21.6059C16.3552 22.3006 15.7967 22.8849 15.12 23.3031C14.4434 23.7213 13.671 23.9595 12.8764 23.9953C12.0817 24.0311 11.2911 23.8631 10.5796 23.5073C9.86814 23.1516 9.2594 22.6199 8.81121 21.9627C8.36302 21.3055 8.09025 20.5447 8.01882 19.7524C7.94738 18.9602 8.07964 18.1628 8.40305 17.4361C8.62988 16.9263 8.94547 16.4632 9.33329 16.0674V12.7995C8.63637 13.1551 7.99748 13.6217 7.44304 14.1844C6.47609 15.1657 5.80513 16.3996 5.50702 17.7447C5.20892 19.0897 5.29574 20.4915 5.75753 21.7895C6.21932 23.0875 7.0374 24.2291 8.11805 25.0837C9.1987 25.9382 10.4982 26.471 11.8677 26.6211C13.2372 26.7712 14.6212 26.5325 15.8613 25.9323C17.1014 25.3321 18.1473 24.3948 18.8793 23.2276C19.6112 22.0606 19.9996 20.7109 20 19.3334C20 19.3333 20 19.3335 20 19.3334V13.3334C20 12.8279 20.2857 12.3659 20.738 12.1403C21.1903 11.9146 21.7312 11.9641 22.1351 12.268C23.4848 13.2839 25.0302 13.998 26.6666 14.3698V11.6118C25.187 11.1701 23.8339 10.3666 22.7337 9.26633C21.6334 8.1661 20.8298 6.81296 20.3882 5.33335H17.3333Z"/>
	</symbol>

	<symbol id="Elo" width="35" height="24" viewBox="0 0 35 24" fill="currentColor" xmlns="http://www.w3.org/2000/svg">
		<rect x="1" y="0.5" width="33" height="23" rx="3.5" fill="white" stroke="#D9D9D9"/>
		<path d="M8.32406 9.49561C8.61175 9.40128 8.91952 9.35007 9.23975 9.35007C10.6373 9.35007 11.8031 10.3239 12.0705 11.6176L14.0509 11.2215C13.5965 9.02277 11.6154 7.36768 9.23975 7.36768C8.69585 7.36768 8.17231 7.4546 7.68359 7.61471L8.32406 9.49561Z" fill="#FECA2F"/>
		<path d="M5.96727 15.8676L7.15306 14.3365C6.62376 13.8011 6.28968 13.0195 6.28968 12.1483C6.28968 11.2777 6.62344 10.4961 7.1526 9.96109L5.96618 8.43018C5.06678 9.33977 4.5 10.6684 4.5 12.1483C4.5 13.6289 5.06761 14.958 5.96727 15.8676Z" fill="#1BA7DE"/>
		<path d="M12.0711 12.6801C11.8028 13.9735 10.6377 14.9462 9.24142 14.9462C8.92105 14.9462 8.61268 14.8948 8.32497 14.8002L7.68359 16.6821C8.17307 16.843 8.69677 16.93 9.24142 16.93C11.6149 16.93 13.5947 15.276 14.0509 13.0782L12.0711 12.6801Z" fill="#EC412A"/>
		<path fill-rule="evenodd" clip-rule="evenodd" d="M23.5803 8.43018V13.8714L24.5567 14.2628L24.0948 15.336L23.1292 14.9479C22.912 14.8569 22.7651 14.7181 22.6535 14.5615C22.5463 14.4012 22.4668 14.1821 22.4668 13.8864V8.43018H23.5803ZM16.1742 12.4743C16.1984 10.9183 17.5236 9.67616 19.1315 9.7C20.4963 9.7207 21.6271 10.6451 21.9241 11.8745L16.6457 14.0561C16.3391 13.6028 16.1648 13.0575 16.1742 12.4743ZM17.3819 12.6925C17.3747 12.6272 17.3696 12.5602 17.3715 12.4927C17.3867 11.5759 18.1668 10.8444 19.1142 10.8596C19.6298 10.8662 20.0877 11.0946 20.3972 11.448L17.3819 12.6925ZM20.2861 13.7027C19.968 14.0019 19.5366 14.1842 19.0603 14.1777C18.7338 14.1724 18.4312 14.0779 18.174 13.9204L17.5364 14.9029C17.9731 15.1698 18.488 15.3277 19.0431 15.336C19.8512 15.3476 20.5877 15.0407 21.1232 14.5339L20.2861 13.7027ZM27.6435 10.8595C27.4533 10.8595 27.2705 10.8892 27.0997 10.9447L26.7197 9.84372C27.0097 9.75008 27.3203 9.69922 27.6435 9.69922C29.0538 9.69922 30.2303 10.668 30.5001 11.9548L29.3239 12.1867C29.1654 11.4293 28.4733 10.8595 27.6435 10.8595ZM25.7123 14.629L26.507 13.76C26.152 13.4561 25.9285 13.0123 25.9285 12.5177C25.9285 12.0235 26.152 11.5799 26.5066 11.2763L25.7113 10.4072C25.1084 10.9236 24.7285 11.6781 24.7285 12.5177C24.7285 13.3583 25.1087 14.1125 25.7123 14.629ZM27.6437 14.1762C28.4727 14.1762 29.1648 13.6068 29.3242 12.8506L30.5 13.0835C30.2289 14.3689 29.0527 15.3363 27.6437 15.3363C27.3203 15.3363 27.0093 15.2853 26.7185 15.1912L27.0994 14.0907C27.2704 14.1459 27.4534 14.1762 27.6437 14.1762Z" fill="black"/>
	</symbol>

	<symbol id="Diners" width="35" height="24" viewBox="0 0 35 24" fill="none" xmlns="http://www.w3.org/2000/svg">	
	<rect x="0.5" y="0.5" width="33" height="23" rx="3.5" fill="white" stroke="#D9D9D9"/>
	<path fill-rule="evenodd" clip-rule="evenodd" d="M15.8387 19.2998H18.4348C22.4872 19.2998 25.7165 16.0848 25.8432 12.1133V12.0503C25.7798 8.01572 22.4872 4.73766 18.4348 4.8007H15.5221C11.6597 4.92678 8.62034 8.20484 8.74698 12.1133C8.74698 16.0217 11.9129 19.2368 15.8387 19.2998ZM10.0137 12.0503C10.0137 8.77223 12.7364 6.06152 16.029 6.06152C19.3216 6.06152 22.0443 8.77223 22.0443 12.0503C22.0443 15.3283 19.3216 18.039 16.029 18.039C12.7364 18.039 10.0137 15.3283 10.0137 12.0503ZM16.9785 16.0846V8.07861C19.1947 8.64597 20.5877 10.8524 20.0178 13.0587C19.6379 14.5717 18.4981 15.7064 16.9785 16.0846ZM12.1026 11.0415C11.5327 13.2479 12.8624 15.5173 15.0786 16.0846V8.07861C13.6222 8.45685 12.4825 9.59156 12.1026 11.0415Z" fill="#0079BE"/>
	</symbol>

	<symbol id="Mastercard" width="51" height="32" viewBox="0 0 51 32" fill="currentColor" xmlns="http://www.w3.org/2000/svg">
		<rect x="1" y="0.5" width="33" height="23" rx="3.5" fill="white" stroke="#D9D9D9"/>
	<path fill-rule="evenodd" clip-rule="evenodd" d="M17.6791 16.7993C16.4951 17.7975 14.9591 18.4 13.2807 18.4C9.53582 18.4 6.5 15.4003 6.5 11.7C6.5 7.99969 9.53582 5 13.2807 5C14.9591 5 16.4951 5.60255 17.6791 6.60067C18.8632 5.60255 20.3992 5 22.0776 5C25.8224 5 28.8583 7.99969 28.8583 11.7C28.8583 15.4003 25.8224 18.4 22.0776 18.4C20.3992 18.4 18.8632 17.7975 17.6791 16.7993Z" fill="#ED0006"/>
	<path fill-rule="evenodd" clip-rule="evenodd" d="M17.6787 16.7997C19.1368 15.5708 20.0615 13.7421 20.0615 11.7C20.0615 9.65789 19.1368 7.82916 17.6787 6.60026C18.8627 5.60238 20.3985 5 22.0767 5C25.8215 5 28.8574 7.99969 28.8574 11.7C28.8574 15.4003 25.8215 18.4 22.0767 18.4C20.3985 18.4 18.8627 17.7976 17.6787 16.7997Z" fill="#F9A000"/>
	<path fill-rule="evenodd" clip-rule="evenodd" d="M17.6791 16.7992C19.137 15.5703 20.0614 13.7418 20.0614 11.6999C20.0614 9.65803 19.137 7.82949 17.6791 6.60059C16.2213 7.82949 15.2969 9.65803 15.2969 11.6999C15.2969 13.7418 16.2213 15.5703 17.6791 16.7992Z" fill="#FF5E00"/>
	</symbol>
	<symbol id="Visas" xmlns="http://www.w3.org/2000/svg" viewBox="0 0 40 12" fill="none" stroke="currentColor"><path d="M14.2514 11.8628L16.2325 0.237305H19.4012L17.4187 11.8628H14.2514Z" fill="currentColor"/><path d="M28.8667 0.488266C28.2389 0.252744 27.2552 0 26.0267 0C22.8956 0 20.6902 1.57674 20.6714 3.83653C20.6537 5.50698 22.2459 6.43886 23.4479 6.99494C24.6813 7.56486 25.0959 7.92824 25.09 8.437C25.0821 9.21631 24.105 9.57221 23.1942 9.57221C21.926 9.57221 21.2522 9.39601 20.2115 8.96208L19.8031 8.77728L19.3585 11.3797C20.0986 11.7043 21.4671 11.9854 22.8882 12C26.2191 12 28.3815 10.4413 28.4061 8.02807C28.4179 6.70556 27.5737 5.69921 25.7455 4.86948C24.638 4.33169 23.9597 3.97282 23.9669 3.42826C23.9669 2.94504 24.541 2.42833 25.7816 2.42833C26.8177 2.41223 27.5684 2.6382 28.1533 2.87372L28.4372 3.00787L28.8667 0.488266Z" fill="currentColor"/><path d="M37.0208 0.237305H34.5723C33.8138 0.237305 33.2461 0.444322 32.913 1.20137L28.2071 11.8552H31.5345C31.5345 11.8552 32.0785 10.4228 32.2015 10.1082C32.5651 10.1082 35.7976 10.1132 36.2597 10.1132C36.3545 10.5202 36.6452 11.8552 36.6452 11.8552H39.5855L37.0208 0.237305ZM33.136 7.74409C33.3981 7.07428 34.3985 4.49428 34.3985 4.49428C34.3798 4.52522 34.6587 3.82121 34.8186 3.38473L35.0328 4.38703C35.0328 4.38703 35.6395 7.16205 35.7663 7.74391H33.136V7.74409Z" fill="currentColor"/><path d="M0.45503 0.237305L0.414551 0.479138C1.66716 0.782359 2.78593 1.22123 3.76542 1.76717L6.57706 11.8441L9.92966 11.8404L14.9183 0.237305H11.5615L8.45929 8.16502L8.12885 6.55384C8.11337 6.50406 8.09654 6.4542 8.07932 6.40422L7.00087 1.21879C6.80912 0.482646 6.25282 0.262959 5.56461 0.237305H0.45503Z" fill="currentColor"/>
	</symbol>

	<symbol id="Pix" width="49" height="32" viewBox="0 0 49 32" fill="none" xmlns="http://www.w3.org/2000/svg">
	<rect x="1" y="0.5" width="33" height="23" rx="3.5" fill="white" stroke="#D9D9D9"/>
	<path d="M14.9487 16.4037V11.2422C14.9487 10.2926 15.7186 9.52274 16.6683 9.52274L18.1922 9.52499C19.1392 9.52688 19.9058 10.2951 19.9058 11.242V12.3407C19.9058 13.2903 19.1359 14.0602 18.1863 14.0602H16.0328" stroke="#939598" stroke-width="0.5" stroke-miterlimit="10" stroke-linecap="round" stroke-linejoin="round"/>
	<path d="M20.3318 9.52204H20.9928C21.3826 9.52204 21.6985 9.83799 21.6985 10.2277V14.0834" stroke="#939598" stroke-width="0.5" stroke-miterlimit="10" stroke-linecap="round" stroke-linejoin="round"/>
	<path d="M21.5567 8.92467L21.257 8.62486C21.1826 8.5505 21.1826 8.42988 21.257 8.35549L21.5566 8.05591C21.6311 7.9814 21.7518 7.9814 21.8263 8.05591L22.1259 8.35549C22.2003 8.42988 22.2003 8.5505 22.1259 8.62486L21.8262 8.92467C21.7518 8.99907 21.6311 8.99907 21.5567 8.92467Z" fill="#32BCAD"/>
	<path d="M22.9668 9.51855H23.6224C23.9596 9.51855 24.2831 9.6525 24.5215 9.89098L26.0549 11.4244C26.2536 11.623 26.5756 11.623 26.7742 11.4244L28.302 9.89658C28.5405 9.65814 28.8639 9.52419 29.2012 9.52419H29.7341" stroke="#939598" stroke-width="0.5" stroke-miterlimit="10" stroke-linecap="round" stroke-linejoin="round"/>
	<path d="M22.9668 14.0496H23.6224C23.9596 14.0496 24.2831 13.9156 24.5215 13.6771L26.0549 12.1437C26.2536 11.9451 26.5756 11.9451 26.7742 12.1437L28.302 13.6715C28.5405 13.91 28.8639 14.0439 29.2012 14.0439H29.7341" stroke="#939598" stroke-width="0.5" stroke-miterlimit="10" stroke-linecap="round" stroke-linejoin="round"/>
	<path d="M11.0403 15.0292C10.7112 15.0292 10.4018 14.901 10.1691 14.6685L8.91123 13.4106C8.82295 13.3221 8.669 13.3224 8.58072 13.4106L7.31826 14.6731C7.08558 14.9056 6.77614 15.0337 6.44709 15.0337H6.19922L7.79231 16.6269C8.28986 17.1244 9.09654 17.1244 9.59409 16.6269L11.1918 15.0292H11.0403Z" fill="#32BCAD"/>
	<path d="M6.44705 10.5799C6.7761 10.5799 7.08554 10.7081 7.31818 10.9406L8.58065 12.2033C8.67157 12.2942 8.82003 12.2946 8.91119 12.2032L10.169 10.9452C10.4017 10.7126 10.7112 10.5845 11.0402 10.5845H11.1917L9.59405 8.98686C9.0965 8.4893 8.28982 8.4893 7.79227 8.98686L6.19922 10.5799H6.44705Z" fill="#32BCAD"/>
	<path d="M12.5132 11.9059L11.5477 10.9405C11.5265 10.949 11.5035 10.9543 11.4792 10.9543H11.0402C10.8133 10.9543 10.5911 11.0463 10.4308 11.2068L9.1729 12.4647C9.05524 12.5824 8.90057 12.6413 8.74603 12.6413C8.59137 12.6413 8.43682 12.5824 8.31912 12.4648L7.05654 11.2022C6.89616 11.0418 6.67405 10.9497 6.44708 10.9497H5.90732C5.88433 10.9497 5.86279 10.9443 5.84248 10.9366L4.87317 11.9059C4.37561 12.4035 4.37561 13.2101 4.87317 13.7077L5.84244 14.677C5.86275 14.6693 5.88433 14.6639 5.90732 14.6639H6.44708C6.67405 14.6639 6.89616 14.5719 7.05654 14.4114L8.319 13.149C8.54719 12.921 8.94495 12.9209 9.1729 13.1491L10.4308 14.4068C10.5911 14.5673 10.8133 14.6593 11.0402 14.6593H11.4792C11.5035 14.6593 11.5265 14.6646 11.5478 14.6731L12.5132 13.7077C13.0108 13.2101 13.0108 12.4035 12.5132 11.9059Z" fill="#32BCAD"/>
	</symbol>


	<symbol id="Visa" width="35" height="24" viewBox="0 0 35 24" fill="none" xmlns="http://www.w3.org/2000/svg">
		
	<rect x="1" y="0.5" width="33" height="23" rx="3.5" fill="white" stroke="#D9D9D9"/>
	<path d="M28.378 8.1123H26.7686C26.2821 8.1123 25.9078 8.26201 25.6833 8.74856L22.6143 15.7474H24.785C24.785 15.7474 25.1593 14.8117 25.2341 14.5872C25.4587 14.5872 27.592 14.5872 27.8915 14.5872C27.9663 14.8492 28.1534 15.71 28.1534 15.71H30.0996L28.378 8.1123ZM25.833 13.0152C26.0201 12.5661 26.6564 10.8819 26.6564 10.8819C26.6564 10.9193 26.8435 10.4328 26.9184 10.1708L27.0681 10.8445C27.0681 10.8445 27.4798 12.6784 27.5546 13.0527H25.833V13.0152Z" fill="#3362AB"/>
	<path d="M22.7644 13.2398C22.7644 14.8117 21.3421 15.8597 19.1339 15.8597C18.1983 15.8597 17.3 15.6725 16.8135 15.448L17.1129 13.7263L17.3749 13.8386C18.0486 14.138 18.4977 14.2503 19.3211 14.2503C19.9199 14.2503 20.5562 14.0257 20.5562 13.5018C20.5562 13.1649 20.2942 12.9404 19.4708 12.5661C18.6848 12.1918 17.6369 11.593 17.6369 10.5076C17.6369 9.01053 19.0965 8 21.155 8C21.941 8 22.6146 8.14971 23.0263 8.33684L22.7269 9.98363L22.5772 9.83392C22.203 9.68421 21.7164 9.5345 21.0053 9.5345C20.2193 9.57193 19.8451 9.90877 19.8451 10.2082C19.8451 10.545 20.2942 10.807 21.0053 11.1439C22.203 11.7053 22.7644 12.3415 22.7644 13.2398Z" fill="#3362AB"/>
	<path d="M4.5 8.18731L4.53743 8.0376H7.75614C8.20527 8.0376 8.54211 8.18731 8.65439 8.67386L9.3655 12.0423C8.65439 10.2458 7.0076 8.78614 4.5 8.18731Z" fill="#F9B50B"/>
	<path d="M13.894 8.11226L10.6379 15.7099H8.4297L6.55835 9.34734C7.90572 10.2082 9.02853 11.5555 9.44022 12.4912L9.66478 13.2772L11.6858 8.07483H13.894V8.11226Z" fill="#3362AB"/>
	<path d="M14.755 8.07483H16.8135L15.5035 15.7099H13.4451L14.755 8.07483Z" fill="#3362AB"/>
	</symbol>
	<symbol id="ArrowLeft" width="24" height="24" viewBox="0 0 24 24" fill="currentColor" xmlns="http://www.w3.org/2000/svg">
		<path fill-rule="evenodd" clip-rule="evenodd" d="M10.0001 6L8.59009 7.41L13.1701 12L8.59009 16.59L10.0001 18L16.0001 12L10.0001 6Z" fill="white"/>
	</symbol>
	<symbol id="ArrowBlack" width="24" height="24" viewBox="0 0 24 24" fill="none" xmlns="http://www.w3.org/2000/svg">
		<path d="M19.5 9L12 16.5L4.5 9" stroke="black" stroke-width="2" stroke-linecap="round" stroke-linejoin="round"/>
	</symbol>
	<symbol id="Promotion" width="17" height="24" viewBox="0 0 17 16" fill="none" xmlns="http://www.w3.org/2000/svg">
		
    <mask id="path-1-outside-1_4_1313" maskUnits="userSpaceOnUse" x="0.5" y="2.19995" width="16" height="11" fill="black">
    <rect fill="white" x="0.5" y="2.19995" width="16" height="11"/>
    <path d="M2.3 3.19995C1.86053 3.19995 1.5 3.56048 1.5 3.99995V6.79995H1.7C2.36511 6.79995 2.9 7.33484 2.9 7.99995C2.9 8.66506 2.36511 9.19995 1.7 9.19995H1.5V12C1.5 12.4394 1.86053 12.8 2.3 12.8H14.7C15.1395 12.8 15.5 12.4394 15.5 12V9.19995H15.3C14.6349 9.19995 14.1 8.66506 14.1 7.99995C14.1 7.33484 14.6349 6.79995 15.3 6.79995H15.5V3.99995C15.5 3.56048 15.1395 3.19995 14.7 3.19995H2.3ZM2.3 3.59995H5.3C5.3 3.65299 5.32107 3.70387 5.35858 3.74137C5.39609 3.77888 5.44696 3.79995 5.5 3.79995C5.55304 3.79995 5.60391 3.77888 5.64142 3.74137C5.67893 3.70387 5.7 3.65299 5.7 3.59995H14.7C14.9233 3.59995 15.1 3.77662 15.1 3.99995V6.44058C14.3169 6.54355 13.7 7.18952 13.7 7.99995C13.7 8.81038 14.3169 9.45635 15.1 9.55933V12C15.1 12.2233 14.9233 12.4 14.7 12.4H5.7C5.7 12.3469 5.67893 12.296 5.64142 12.2585C5.60391 12.221 5.55304 12.2 5.5 12.2C5.44696 12.2 5.39609 12.221 5.35858 12.2585C5.32107 12.296 5.3 12.3469 5.3 12.4H2.3C2.07667 12.4 1.9 12.2233 1.9 12V9.55933C2.68308 9.45635 3.3 8.81038 3.3 7.99995C3.3 7.18952 2.68308 6.54355 1.9 6.44058V3.99995C1.9 3.77662 2.07667 3.59995 2.3 3.59995ZM5.5 4.19995C5.44696 4.19995 5.39609 4.22102 5.35858 4.25853C5.32107 4.29604 5.3 4.34691 5.3 4.39995C5.3 4.45299 5.32107 4.50387 5.35858 4.54137C5.39609 4.57888 5.44696 4.59995 5.5 4.59995C5.55304 4.59995 5.60391 4.57888 5.64142 4.54137C5.67893 4.50387 5.7 4.45299 5.7 4.39995C5.7 4.34691 5.67893 4.29604 5.64142 4.25853C5.60391 4.22102 5.55304 4.19995 5.5 4.19995ZM5.5 4.99995C5.44696 4.99995 5.39609 5.02102 5.35858 5.05853C5.32107 5.09604 5.3 5.14691 5.3 5.19995C5.3 5.25299 5.32107 5.30387 5.35858 5.34137C5.39609 5.37888 5.44696 5.39995 5.5 5.39995C5.55304 5.39995 5.60391 5.37888 5.64142 5.34137C5.67893 5.30387 5.7 5.25299 5.7 5.19995C5.7 5.14691 5.67893 5.09604 5.64142 5.05853C5.60391 5.02102 5.55304 4.99995 5.5 4.99995ZM8.31953 5.52886C7.72373 5.52886 7.3 6.00569 7.3 6.67769C7.3 7.35309 7.72373 7.82964 8.31953 7.82964C8.91533 7.82964 9.33594 7.35289 9.33594 6.67769C9.33594 6.00229 8.91533 5.52886 8.31953 5.52886ZM11.1566 5.61167L9.48164 7.89878L7.65742 10.3882H8.26641L9.90508 8.14722L11.759 5.61167H11.1566ZM5.5 5.79995C5.44696 5.79995 5.39609 5.82102 5.35858 5.85853C5.32107 5.89604 5.3 5.94691 5.3 5.99995C5.3 6.05299 5.32107 6.10387 5.35858 6.14137C5.39609 6.17888 5.44696 6.19995 5.5 6.19995C5.55304 6.19995 5.60391 6.17888 5.64142 6.14137C5.67893 6.10387 5.7 6.05299 5.7 5.99995C5.7 5.94691 5.67893 5.89604 5.64142 5.85853C5.60391 5.82102 5.55304 5.79995 5.5 5.79995ZM8.31953 5.95269C8.61753 5.95269 8.80625 6.23069 8.80625 6.67769C8.80625 7.11469 8.61073 7.40581 8.31953 7.40581C8.02493 7.40581 7.82969 7.11789 7.82969 6.67769C7.82969 6.23749 8.02153 5.95269 8.31953 5.95269ZM5.5 6.59995C5.44696 6.59995 5.39609 6.62102 5.35858 6.65853C5.32107 6.69604 5.3 6.74691 5.3 6.79995C5.3 6.85299 5.32107 6.90387 5.35858 6.94137C5.39609 6.97888 5.44696 6.99995 5.5 6.99995C5.55304 6.99995 5.60391 6.97888 5.64142 6.94137C5.67893 6.90387 5.7 6.85299 5.7 6.79995C5.7 6.74691 5.67893 6.69604 5.64142 6.65853C5.60391 6.62102 5.55304 6.59995 5.5 6.59995ZM5.5 7.39995C5.44696 7.39995 5.39609 7.42102 5.35858 7.45853C5.32107 7.49604 5.3 7.54691 5.3 7.59995C5.3 7.65299 5.32107 7.70387 5.35858 7.74137C5.39609 7.77888 5.44696 7.79995 5.5 7.79995C5.55304 7.79995 5.60391 7.77888 5.64142 7.74137C5.67893 7.70387 5.7 7.65299 5.7 7.59995C5.7 7.54691 5.67893 7.49604 5.64142 7.45853C5.60391 7.42102 5.55304 7.39995 5.5 7.39995ZM11.084 8.17026C10.4882 8.17026 10.0641 8.64709 10.0641 9.31909C10.0641 9.99449 10.4882 10.471 11.084 10.471C11.6798 10.471 12.1 9.99429 12.1 9.31909C12.1 8.64369 11.6798 8.17026 11.084 8.17026ZM5.5 8.19995C5.44696 8.19995 5.39609 8.22102 5.35858 8.25853C5.32107 8.29604 5.3 8.34691 5.3 8.39995C5.3 8.45299 5.32107 8.50387 5.35858 8.54137C5.39609 8.57888 5.44696 8.59995 5.5 8.59995C5.55304 8.59995 5.60391 8.57888 5.64142 8.54137C5.67893 8.50387 5.7 8.45299 5.7 8.39995C5.7 8.34691 5.67893 8.29604 5.64142 8.25853C5.60391 8.22102 5.55304 8.19995 5.5 8.19995ZM11.084 8.59409C11.382 8.59409 11.5703 8.87209 11.5703 9.31909C11.5703 9.75609 11.3752 10.0472 11.084 10.0472C10.7894 10.0472 10.5938 9.75929 10.5938 9.31909C10.5938 8.87889 10.786 8.59409 11.084 8.59409ZM5.5 8.99995C5.44696 8.99995 5.39609 9.02102 5.35858 9.05853C5.32107 9.09604 5.3 9.14691 5.3 9.19995C5.3 9.25299 5.32107 9.30387 5.35858 9.34137C5.39609 9.37888 5.44696 9.39995 5.5 9.39995C5.55304 9.39995 5.60391 9.37888 5.64142 9.34137C5.67893 9.30387 5.7 9.25299 5.7 9.19995C5.7 9.14691 5.67893 9.09604 5.64142 9.05853C5.60391 9.02102 5.55304 8.99995 5.5 8.99995ZM5.5 9.79995C5.44696 9.79995 5.39609 9.82102 5.35858 9.85853C5.32107 9.89604 5.3 9.94691 5.3 9.99995C5.3 10.053 5.32107 10.1039 5.35858 10.1414C5.39609 10.1789 5.44696 10.2 5.5 10.2C5.55304 10.2 5.60391 10.1789 5.64142 10.1414C5.67893 10.1039 5.7 10.053 5.7 9.99995C5.7 9.94691 5.67893 9.89604 5.64142 9.85853C5.60391 9.82102 5.55304 9.79995 5.5 9.79995ZM5.5 10.6C5.44696 10.6 5.39609 10.621 5.35858 10.6585C5.32107 10.696 5.3 10.7469 5.3 10.8C5.3 10.853 5.32107 10.9039 5.35858 10.9414C5.39609 10.9789 5.44696 11 5.5 11C5.55304 11 5.60391 10.9789 5.64142 10.9414C5.67893 10.9039 5.7 10.853 5.7 10.8C5.7 10.7469 5.67893 10.696 5.64142 10.6585C5.60391 10.621 5.55304 10.6 5.5 10.6ZM5.5 11.4C5.44696 11.4 5.39609 11.421 5.35858 11.4585C5.32107 11.496 5.3 11.5469 5.3 11.6C5.3 11.653 5.32107 11.7039 5.35858 11.7414C5.39609 11.7789 5.44696 11.8 5.5 11.8C5.55304 11.8 5.60391 11.7789 5.64142 11.7414C5.67893 11.7039 5.7 11.653 5.7 11.6C5.7 11.5469 5.67893 11.496 5.64142 11.4585C5.60391 11.421 5.55304 11.4 5.5 11.4Z"/>
  </mask>
  <path d="M2.3 3.19995C1.86053 3.19995 1.5 3.56048 1.5 3.99995V6.79995H1.7C2.36511 6.79995 2.9 7.33484 2.9 7.99995C2.9 8.66506 2.36511 9.19995 1.7 9.19995H1.5V12C1.5 12.4394 1.86053 12.8 2.3 12.8H14.7C15.1395 12.8 15.5 12.4394 15.5 12V9.19995H15.3C14.6349 9.19995 14.1 8.66506 14.1 7.99995C14.1 7.33484 14.6349 6.79995 15.3 6.79995H15.5V3.99995C15.5 3.56048 15.1395 3.19995 14.7 3.19995H2.3ZM2.3 3.59995H5.3C5.3 3.65299 5.32107 3.70387 5.35858 3.74137C5.39609 3.77888 5.44696 3.79995 5.5 3.79995C5.55304 3.79995 5.60391 3.77888 5.64142 3.74137C5.67893 3.70387 5.7 3.65299 5.7 3.59995H14.7C14.9233 3.59995 15.1 3.77662 15.1 3.99995V6.44058C14.3169 6.54355 13.7 7.18952 13.7 7.99995C13.7 8.81038 14.3169 9.45635 15.1 9.55933V12C15.1 12.2233 14.9233 12.4 14.7 12.4H5.7C5.7 12.3469 5.67893 12.296 5.64142 12.2585C5.60391 12.221 5.55304 12.2 5.5 12.2C5.44696 12.2 5.39609 12.221 5.35858 12.2585C5.32107 12.296 5.3 12.3469 5.3 12.4H2.3C2.07667 12.4 1.9 12.2233 1.9 12V9.55933C2.68308 9.45635 3.3 8.81038 3.3 7.99995C3.3 7.18952 2.68308 6.54355 1.9 6.44058V3.99995C1.9 3.77662 2.07667 3.59995 2.3 3.59995ZM5.5 4.19995C5.44696 4.19995 5.39609 4.22102 5.35858 4.25853C5.32107 4.29604 5.3 4.34691 5.3 4.39995C5.3 4.45299 5.32107 4.50387 5.35858 4.54137C5.39609 4.57888 5.44696 4.59995 5.5 4.59995C5.55304 4.59995 5.60391 4.57888 5.64142 4.54137C5.67893 4.50387 5.7 4.45299 5.7 4.39995C5.7 4.34691 5.67893 4.29604 5.64142 4.25853C5.60391 4.22102 5.55304 4.19995 5.5 4.19995ZM5.5 4.99995C5.44696 4.99995 5.39609 5.02102 5.35858 5.05853C5.32107 5.09604 5.3 5.14691 5.3 5.19995C5.3 5.25299 5.32107 5.30387 5.35858 5.34137C5.39609 5.37888 5.44696 5.39995 5.5 5.39995C5.55304 5.39995 5.60391 5.37888 5.64142 5.34137C5.67893 5.30387 5.7 5.25299 5.7 5.19995C5.7 5.14691 5.67893 5.09604 5.64142 5.05853C5.60391 5.02102 5.55304 4.99995 5.5 4.99995ZM8.31953 5.52886C7.72373 5.52886 7.3 6.00569 7.3 6.67769C7.3 7.35309 7.72373 7.82964 8.31953 7.82964C8.91533 7.82964 9.33594 7.35289 9.33594 6.67769C9.33594 6.00229 8.91533 5.52886 8.31953 5.52886ZM11.1566 5.61167L9.48164 7.89878L7.65742 10.3882H8.26641L9.90508 8.14722L11.759 5.61167H11.1566ZM5.5 5.79995C5.44696 5.79995 5.39609 5.82102 5.35858 5.85853C5.32107 5.89604 5.3 5.94691 5.3 5.99995C5.3 6.05299 5.32107 6.10387 5.35858 6.14137C5.39609 6.17888 5.44696 6.19995 5.5 6.19995C5.55304 6.19995 5.60391 6.17888 5.64142 6.14137C5.67893 6.10387 5.7 6.05299 5.7 5.99995C5.7 5.94691 5.67893 5.89604 5.64142 5.85853C5.60391 5.82102 5.55304 5.79995 5.5 5.79995ZM8.31953 5.95269C8.61753 5.95269 8.80625 6.23069 8.80625 6.67769C8.80625 7.11469 8.61073 7.40581 8.31953 7.40581C8.02493 7.40581 7.82969 7.11789 7.82969 6.67769C7.82969 6.23749 8.02153 5.95269 8.31953 5.95269ZM5.5 6.59995C5.44696 6.59995 5.39609 6.62102 5.35858 6.65853C5.32107 6.69604 5.3 6.74691 5.3 6.79995C5.3 6.85299 5.32107 6.90387 5.35858 6.94137C5.39609 6.97888 5.44696 6.99995 5.5 6.99995C5.55304 6.99995 5.60391 6.97888 5.64142 6.94137C5.67893 6.90387 5.7 6.85299 5.7 6.79995C5.7 6.74691 5.67893 6.69604 5.64142 6.65853C5.60391 6.62102 5.55304 6.59995 5.5 6.59995ZM5.5 7.39995C5.44696 7.39995 5.39609 7.42102 5.35858 7.45853C5.32107 7.49604 5.3 7.54691 5.3 7.59995C5.3 7.65299 5.32107 7.70387 5.35858 7.74137C5.39609 7.77888 5.44696 7.79995 5.5 7.79995C5.55304 7.79995 5.60391 7.77888 5.64142 7.74137C5.67893 7.70387 5.7 7.65299 5.7 7.59995C5.7 7.54691 5.67893 7.49604 5.64142 7.45853C5.60391 7.42102 5.55304 7.39995 5.5 7.39995ZM11.084 8.17026C10.4882 8.17026 10.0641 8.64709 10.0641 9.31909C10.0641 9.99449 10.4882 10.471 11.084 10.471C11.6798 10.471 12.1 9.99429 12.1 9.31909C12.1 8.64369 11.6798 8.17026 11.084 8.17026ZM5.5 8.19995C5.44696 8.19995 5.39609 8.22102 5.35858 8.25853C5.32107 8.29604 5.3 8.34691 5.3 8.39995C5.3 8.45299 5.32107 8.50387 5.35858 8.54137C5.39609 8.57888 5.44696 8.59995 5.5 8.59995C5.55304 8.59995 5.60391 8.57888 5.64142 8.54137C5.67893 8.50387 5.7 8.45299 5.7 8.39995C5.7 8.34691 5.67893 8.29604 5.64142 8.25853C5.60391 8.22102 5.55304 8.19995 5.5 8.19995ZM11.084 8.59409C11.382 8.59409 11.5703 8.87209 11.5703 9.31909C11.5703 9.75609 11.3752 10.0472 11.084 10.0472C10.7894 10.0472 10.5938 9.75929 10.5938 9.31909C10.5938 8.87889 10.786 8.59409 11.084 8.59409ZM5.5 8.99995C5.44696 8.99995 5.39609 9.02102 5.35858 9.05853C5.32107 9.09604 5.3 9.14691 5.3 9.19995C5.3 9.25299 5.32107 9.30387 5.35858 9.34137C5.39609 9.37888 5.44696 9.39995 5.5 9.39995C5.55304 9.39995 5.60391 9.37888 5.64142 9.34137C5.67893 9.30387 5.7 9.25299 5.7 9.19995C5.7 9.14691 5.67893 9.09604 5.64142 9.05853C5.60391 9.02102 5.55304 8.99995 5.5 8.99995ZM5.5 9.79995C5.44696 9.79995 5.39609 9.82102 5.35858 9.85853C5.32107 9.89604 5.3 9.94691 5.3 9.99995C5.3 10.053 5.32107 10.1039 5.35858 10.1414C5.39609 10.1789 5.44696 10.2 5.5 10.2C5.55304 10.2 5.60391 10.1789 5.64142 10.1414C5.67893 10.1039 5.7 10.053 5.7 9.99995C5.7 9.94691 5.67893 9.89604 5.64142 9.85853C5.60391 9.82102 5.55304 9.79995 5.5 9.79995ZM5.5 10.6C5.44696 10.6 5.39609 10.621 5.35858 10.6585C5.32107 10.696 5.3 10.7469 5.3 10.8C5.3 10.853 5.32107 10.9039 5.35858 10.9414C5.39609 10.9789 5.44696 11 5.5 11C5.55304 11 5.60391 10.9789 5.64142 10.9414C5.67893 10.9039 5.7 10.853 5.7 10.8C5.7 10.7469 5.67893 10.696 5.64142 10.6585C5.60391 10.621 5.55304 10.6 5.5 10.6ZM5.5 11.4C5.44696 11.4 5.39609 11.421 5.35858 11.4585C5.32107 11.496 5.3 11.5469 5.3 11.6C5.3 11.653 5.32107 11.7039 5.35858 11.7414C5.39609 11.7789 5.44696 11.8 5.5 11.8C5.55304 11.8 5.60391 11.7789 5.64142 11.7414C5.67893 11.7039 5.7 11.653 5.7 11.6C5.7 11.5469 5.67893 11.496 5.64142 11.4585C5.60391 11.421 5.55304 11.4 5.5 11.4Z" fill="white"/>
  <path d="M2.3 3.19995C1.86053 3.19995 1.5 3.56048 1.5 3.99995V6.79995H1.7C2.36511 6.79995 2.9 7.33484 2.9 7.99995C2.9 8.66506 2.36511 9.19995 1.7 9.19995H1.5V12C1.5 12.4394 1.86053 12.8 2.3 12.8H14.7C15.1395 12.8 15.5 12.4394 15.5 12V9.19995H15.3C14.6349 9.19995 14.1 8.66506 14.1 7.99995C14.1 7.33484 14.6349 6.79995 15.3 6.79995H15.5V3.99995C15.5 3.56048 15.1395 3.19995 14.7 3.19995H2.3ZM2.3 3.59995H5.3C5.3 3.65299 5.32107 3.70387 5.35858 3.74137C5.39609 3.77888 5.44696 3.79995 5.5 3.79995C5.55304 3.79995 5.60391 3.77888 5.64142 3.74137C5.67893 3.70387 5.7 3.65299 5.7 3.59995H14.7C14.9233 3.59995 15.1 3.77662 15.1 3.99995V6.44058C14.3169 6.54355 13.7 7.18952 13.7 7.99995C13.7 8.81038 14.3169 9.45635 15.1 9.55933V12C15.1 12.2233 14.9233 12.4 14.7 12.4H5.7C5.7 12.3469 5.67893 12.296 5.64142 12.2585C5.60391 12.221 5.55304 12.2 5.5 12.2C5.44696 12.2 5.39609 12.221 5.35858 12.2585C5.32107 12.296 5.3 12.3469 5.3 12.4H2.3C2.07667 12.4 1.9 12.2233 1.9 12V9.55933C2.68308 9.45635 3.3 8.81038 3.3 7.99995C3.3 7.18952 2.68308 6.54355 1.9 6.44058V3.99995C1.9 3.77662 2.07667 3.59995 2.3 3.59995ZM5.5 4.19995C5.44696 4.19995 5.39609 4.22102 5.35858 4.25853C5.32107 4.29604 5.3 4.34691 5.3 4.39995C5.3 4.45299 5.32107 4.50387 5.35858 4.54137C5.39609 4.57888 5.44696 4.59995 5.5 4.59995C5.55304 4.59995 5.60391 4.57888 5.64142 4.54137C5.67893 4.50387 5.7 4.45299 5.7 4.39995C5.7 4.34691 5.67893 4.29604 5.64142 4.25853C5.60391 4.22102 5.55304 4.19995 5.5 4.19995ZM5.5 4.99995C5.44696 4.99995 5.39609 5.02102 5.35858 5.05853C5.32107 5.09604 5.3 5.14691 5.3 5.19995C5.3 5.25299 5.32107 5.30387 5.35858 5.34137C5.39609 5.37888 5.44696 5.39995 5.5 5.39995C5.55304 5.39995 5.60391 5.37888 5.64142 5.34137C5.67893 5.30387 5.7 5.25299 5.7 5.19995C5.7 5.14691 5.67893 5.09604 5.64142 5.05853C5.60391 5.02102 5.55304 4.99995 5.5 4.99995ZM8.31953 5.52886C7.72373 5.52886 7.3 6.00569 7.3 6.67769C7.3 7.35309 7.72373 7.82964 8.31953 7.82964C8.91533 7.82964 9.33594 7.35289 9.33594 6.67769C9.33594 6.00229 8.91533 5.52886 8.31953 5.52886ZM11.1566 5.61167L9.48164 7.89878L7.65742 10.3882H8.26641L9.90508 8.14722L11.759 5.61167H11.1566ZM5.5 5.79995C5.44696 5.79995 5.39609 5.82102 5.35858 5.85853C5.32107 5.89604 5.3 5.94691 5.3 5.99995C5.3 6.05299 5.32107 6.10387 5.35858 6.14137C5.39609 6.17888 5.44696 6.19995 5.5 6.19995C5.55304 6.19995 5.60391 6.17888 5.64142 6.14137C5.67893 6.10387 5.7 6.05299 5.7 5.99995C5.7 5.94691 5.67893 5.89604 5.64142 5.85853C5.60391 5.82102 5.55304 5.79995 5.5 5.79995ZM8.31953 5.95269C8.61753 5.95269 8.80625 6.23069 8.80625 6.67769C8.80625 7.11469 8.61073 7.40581 8.31953 7.40581C8.02493 7.40581 7.82969 7.11789 7.82969 6.67769C7.82969 6.23749 8.02153 5.95269 8.31953 5.95269ZM5.5 6.59995C5.44696 6.59995 5.39609 6.62102 5.35858 6.65853C5.32107 6.69604 5.3 6.74691 5.3 6.79995C5.3 6.85299 5.32107 6.90387 5.35858 6.94137C5.39609 6.97888 5.44696 6.99995 5.5 6.99995C5.55304 6.99995 5.60391 6.97888 5.64142 6.94137C5.67893 6.90387 5.7 6.85299 5.7 6.79995C5.7 6.74691 5.67893 6.69604 5.64142 6.65853C5.60391 6.62102 5.55304 6.59995 5.5 6.59995ZM5.5 7.39995C5.44696 7.39995 5.39609 7.42102 5.35858 7.45853C5.32107 7.49604 5.3 7.54691 5.3 7.59995C5.3 7.65299 5.32107 7.70387 5.35858 7.74137C5.39609 7.77888 5.44696 7.79995 5.5 7.79995C5.55304 7.79995 5.60391 7.77888 5.64142 7.74137C5.67893 7.70387 5.7 7.65299 5.7 7.59995C5.7 7.54691 5.67893 7.49604 5.64142 7.45853C5.60391 7.42102 5.55304 7.39995 5.5 7.39995ZM11.084 8.17026C10.4882 8.17026 10.0641 8.64709 10.0641 9.31909C10.0641 9.99449 10.4882 10.471 11.084 10.471C11.6798 10.471 12.1 9.99429 12.1 9.31909C12.1 8.64369 11.6798 8.17026 11.084 8.17026ZM5.5 8.19995C5.44696 8.19995 5.39609 8.22102 5.35858 8.25853C5.32107 8.29604 5.3 8.34691 5.3 8.39995C5.3 8.45299 5.32107 8.50387 5.35858 8.54137C5.39609 8.57888 5.44696 8.59995 5.5 8.59995C5.55304 8.59995 5.60391 8.57888 5.64142 8.54137C5.67893 8.50387 5.7 8.45299 5.7 8.39995C5.7 8.34691 5.67893 8.29604 5.64142 8.25853C5.60391 8.22102 5.55304 8.19995 5.5 8.19995ZM11.084 8.59409C11.382 8.59409 11.5703 8.87209 11.5703 9.31909C11.5703 9.75609 11.3752 10.0472 11.084 10.0472C10.7894 10.0472 10.5938 9.75929 10.5938 9.31909C10.5938 8.87889 10.786 8.59409 11.084 8.59409ZM5.5 8.99995C5.44696 8.99995 5.39609 9.02102 5.35858 9.05853C5.32107 9.09604 5.3 9.14691 5.3 9.19995C5.3 9.25299 5.32107 9.30387 5.35858 9.34137C5.39609 9.37888 5.44696 9.39995 5.5 9.39995C5.55304 9.39995 5.60391 9.37888 5.64142 9.34137C5.67893 9.30387 5.7 9.25299 5.7 9.19995C5.7 9.14691 5.67893 9.09604 5.64142 9.05853C5.60391 9.02102 5.55304 8.99995 5.5 8.99995ZM5.5 9.79995C5.44696 9.79995 5.39609 9.82102 5.35858 9.85853C5.32107 9.89604 5.3 9.94691 5.3 9.99995C5.3 10.053 5.32107 10.1039 5.35858 10.1414C5.39609 10.1789 5.44696 10.2 5.5 10.2C5.55304 10.2 5.60391 10.1789 5.64142 10.1414C5.67893 10.1039 5.7 10.053 5.7 9.99995C5.7 9.94691 5.67893 9.89604 5.64142 9.85853C5.60391 9.82102 5.55304 9.79995 5.5 9.79995ZM5.5 10.6C5.44696 10.6 5.39609 10.621 5.35858 10.6585C5.32107 10.696 5.3 10.7469 5.3 10.8C5.3 10.853 5.32107 10.9039 5.35858 10.9414C5.39609 10.9789 5.44696 11 5.5 11C5.55304 11 5.60391 10.9789 5.64142 10.9414C5.67893 10.9039 5.7 10.853 5.7 10.8C5.7 10.7469 5.67893 10.696 5.64142 10.6585C5.60391 10.621 5.55304 10.6 5.5 10.6ZM5.5 11.4C5.44696 11.4 5.39609 11.421 5.35858 11.4585C5.32107 11.496 5.3 11.5469 5.3 11.6C5.3 11.653 5.32107 11.7039 5.35858 11.7414C5.39609 11.7789 5.44696 11.8 5.5 11.8C5.55304 11.8 5.60391 11.7789 5.64142 11.7414C5.67893 11.7039 5.7 11.653 5.7 11.6C5.7 11.5469 5.67893 11.496 5.64142 11.4585C5.60391 11.421 5.55304 11.4 5.5 11.4Z" stroke="white" stroke-width="0.4" mask="url(#path-1-outside-1_4_1313)"/>
	</symbol>
	<symbol id="Amex" width="35" height="24" viewBox="0 0 35 24" fill="none" xmlns="http://www.w3.org/2000/svg">
	<rect width="34" height="24" rx="4" fill="#1F72CD"/>
	<path fill-rule="evenodd" clip-rule="evenodd" d="M6.18111 8L3 15.2467H6.80824L7.28035 14.0913H8.35949L8.8316 15.2467H13.0234V14.3649L13.3969 15.2467H15.5652L15.9387 14.3462V15.2467H24.6566L25.7166 14.1213L26.7092 15.2467L31.1868 15.2561L27.9957 11.6436L31.1868 8H26.7786L25.7467 9.10463L24.7854 8H15.3016L14.4872 9.87045L13.6537 8H9.85343V8.85186L9.43068 8H6.18111ZM6.91832 9.02881H8.77463L10.8847 13.9429V9.02881H12.9182L14.5479 12.5522L16.0499 9.02881H18.0733V14.2288H16.8421L16.8321 10.1541L15.0372 14.2288H13.9358L12.1308 10.1541V14.2288H9.59806L9.11789 13.063H6.52372L6.04454 14.2278H4.6875L6.91832 9.02881ZM24.2055 9.02881H19.1993V14.2258H24.128L25.7166 12.5034L27.2477 14.2258H28.8483L26.5219 11.6423L28.8483 9.02881H27.3172L25.7367 10.7314L24.2055 9.02881ZM7.82148 9.90869L6.9668 11.9854H8.67516L7.82148 9.90869ZM20.4356 11.0551V10.1059V10.105H23.5593L24.9223 11.6231L23.4989 13.1495H20.4356V12.1132H23.1667V11.0551H20.4356Z" fill="white"/>

	</symbol>
    <symbol id="Hipercard" width="35" height="24" viewBox="0 0 35 24" fill="none" xmlns="http://www.w3.org/2000/svg">
	<rect x="1" y="0.5" width="33" height="23" rx="3.5" fill="white" stroke="#D9D9D9"/>
	<path d="M12.5395 7H10.2593C9.25188 7.04971 8.42836 7.47319 8.19058 8.34647C8.06659 8.80191 7.99835 9.3021 7.9014 9.77421C7.40851 12.1748 6.97147 14.6414 6.5 16.9941H24.2513C25.6236 16.9941 26.5659 16.6914 26.8205 15.5547C26.9388 15.0267 27.0521 14.4286 27.1653 13.8484C27.6065 11.5864 28.0481 9.32459 28.5 7H12.5395Z" fill="#B82126"/>
	<path d="M21.6975 12.9708C21.4514 13.2223 20.7603 13.2938 20.831 12.6926C20.8897 12.1932 21.4106 12.0871 21.9753 12.1592C21.9333 12.4324 21.8851 12.7792 21.6975 12.9708ZM20.9199 11.023C20.8964 11.1607 20.8602 11.2854 20.831 11.4172C21.1129 11.3434 21.9907 11.1173 22.0753 11.5099C22.1034 11.6404 22.0549 11.779 22.0197 11.881C21.2259 11.8025 20.5789 11.9401 20.4088 12.5302C20.2948 12.9255 20.4216 13.3145 20.6644 13.423C21.1319 13.6321 21.7006 13.3926 21.8975 13.0636C21.8771 13.1775 21.8577 13.2925 21.8642 13.4346H22.2752C22.2796 13.0238 22.3369 12.6912 22.3974 12.3215C22.4491 12.0067 22.5462 11.695 22.5307 11.4172C22.4955 10.7808 21.4853 11.0059 20.9199 11.023ZM25.0415 13.1679C24.72 13.1751 24.56 12.9674 24.5527 12.623C24.5399 12.0198 24.7934 11.3497 25.3082 11.2896C25.5478 11.2617 25.7214 11.3198 25.897 11.3824C25.7358 12.0599 25.794 13.1511 25.0415 13.1679ZM26.1081 9.97949C26.0671 10.3541 26.0124 10.7144 25.9415 11.0577C24.7696 10.6707 24.051 11.5704 24.0639 12.6809C24.0664 12.8957 24.1018 13.1087 24.2306 13.2607C24.4524 13.5225 25.0875 13.5851 25.4082 13.3651C25.4703 13.3225 25.5337 13.2449 25.5748 13.1911C25.6057 13.1506 25.6548 13.0447 25.6637 13.0751C25.6468 13.1929 25.6216 13.3018 25.6193 13.4346H26.0525C26.136 12.1845 26.3942 11.1168 26.5858 9.97949H26.1081ZM13.8763 12.9824C13.6207 13.2649 12.9924 13.2606 12.9431 12.7853C12.9217 12.5785 12.9955 12.3616 13.032 12.1477C13.0689 11.9311 13.0955 11.7233 13.1319 11.5331C13.3837 11.2123 14.1235 11.1736 14.1985 11.7071C14.2637 12.1702 14.088 12.7485 13.8763 12.9824ZM14.2541 11.023C13.8498 10.8645 13.357 11.0537 13.1433 11.2337C13.1441 11.2416 13.1382 11.2427 13.1319 11.2433C13.1356 11.2401 13.1395 11.2369 13.1433 11.2337C13.1433 11.233 13.1432 11.2324 13.1431 11.2317C13.1467 11.1543 13.1728 11.1004 13.1764 11.023H12.7654C12.5941 12.2123 12.3909 13.3684 12.1765 14.5129H12.6542C12.7234 14.0671 12.7691 13.5969 12.8654 13.1795C12.9745 13.6186 13.6868 13.5346 13.9874 13.3651C14.6077 13.015 15.0861 11.3492 14.2541 11.023ZM16.5204 11.8578H15.3984C15.4339 11.5886 15.666 11.2927 16.0316 11.2781C16.3757 11.2643 16.6221 11.4099 16.5204 11.8578ZM16.0649 10.9766C15.7198 11.0043 15.428 11.108 15.2206 11.336C14.9663 11.6157 14.7603 12.2339 14.8206 12.7969C14.9067 13.6001 15.865 13.5713 16.6315 13.3766C16.6446 13.2357 16.6773 13.1152 16.6982 12.9824C16.3824 13.1057 15.8342 13.2779 15.5095 13.0636C15.2643 12.9018 15.2628 12.4921 15.3428 12.136C15.858 12.1189 16.3934 12.1222 16.9093 12.136C16.942 11.8837 17.0357 11.6085 16.9537 11.3592C16.8456 11.0301 16.4587 10.945 16.0649 10.9766ZM11.8655 11.023C11.8525 11.0249 11.8534 11.0413 11.8544 11.0577C11.7491 11.8793 11.6067 12.6621 11.4544 13.4346H11.9321C12.0469 12.6075 12.1784 11.7979 12.3432 11.023H11.8655ZM24.3306 11.0346C23.9083 10.8143 23.5568 11.1839 23.4196 11.4056C23.4587 11.2918 23.4609 11.1396 23.4973 11.023H23.0751C22.9613 11.8511 22.8241 12.6547 22.6641 13.4346H23.1529C23.156 13.115 23.2161 12.8785 23.264 12.565C23.3662 11.8957 23.5161 11.1617 24.2639 11.3824C24.2887 11.2692 24.299 11.1408 24.3306 11.0346ZM18.9645 12.8665C18.9205 12.7478 18.9091 12.5517 18.9201 12.4027C18.9448 12.0677 19.0618 11.6598 19.2423 11.4752C19.4914 11.2203 19.9832 11.2625 20.3755 11.4056C20.3876 11.2676 20.4142 11.1445 20.431 11.0114C19.7877 10.9018 19.1772 10.97 18.8535 11.3244C18.5366 11.6714 18.3289 12.469 18.4757 12.9708C18.6476 13.5581 19.4182 13.59 20.0422 13.3651C20.0698 13.247 20.0844 13.1154 20.1089 12.994C19.7679 13.1789 19.1161 13.275 18.9645 12.8665ZM18.6979 11.023C18.2743 10.8444 17.9414 11.1462 17.787 11.4288C17.822 11.3031 17.8364 11.1558 17.8647 11.023H17.4425C17.3393 11.8583 17.1872 12.6425 17.0426 13.4346H17.5203C17.5873 12.9644 17.6162 12.3307 17.7647 11.881C17.8834 11.5216 18.1941 11.2154 18.6424 11.3824C18.6487 11.2498 18.6851 11.1486 18.6979 11.023ZM10.9989 10.049C10.9307 10.5112 10.8538 10.9643 10.7767 11.4172C10.2818 11.4226 9.77652 11.4427 9.29916 11.4056C9.38932 10.9625 9.45398 10.4928 9.54353 10.049H9.01031C8.81939 11.1793 8.64576 12.3276 8.43262 13.4346H8.97697C9.06238 12.8667 9.14222 12.293 9.25468 11.7534C9.71884 11.7415 10.2751 11.7207 10.7212 11.765C10.6292 12.3261 10.5181 12.8671 10.4323 13.4346H10.9767C11.1516 12.2877 11.3359 11.1505 11.5544 10.049H10.9989ZM12.3543 10.5592C12.4496 10.4908 12.5722 10.1789 12.4321 10.049C12.3877 10.0079 12.3134 9.99601 12.2099 10.0143C12.1138 10.0312 12.0586 10.0653 12.021 10.1186C11.9606 10.2044 11.9053 10.4631 11.9988 10.5592C12.0898 10.6528 12.2937 10.6027 12.3543 10.5592Z" fill="white"/>
	</symbol>
<symbol id="Ame" width="35" height="24" viewBox="0 0 35 24" fill="none" xmlns="http://www.w3.org/2000/svg">
	<rect x="0.5" y="0.5" width="33" height="23" rx="3.5" fill="white" stroke="#D9D9D9"/>
  <rect x="1" y="0.5" width="33" height="23" rx="3.5" fill="white" stroke="#D9D9D9"/>
  <path d="M17.3548 10.2374C16.151 10.2374 15.6964 10.5321 15.4018 11.3907C15.3933 11.4244 15.4102 11.4581 15.4438 11.4665L16.3109 11.7106C16.3446 11.719 16.3699 11.7022 16.3783 11.6685C16.412 11.5423 16.5382 11.2476 16.8497 11.2476C17.1864 11.2476 17.5989 11.2476 17.7757 11.2476C17.9525 11.2476 18.104 11.3739 18.104 11.5254C18.104 11.677 18.104 12.0895 18.104 12.0895C18.104 12.0895 17.3295 12.0895 16.6477 12.0895C15.9153 12.0895 15.2166 12.6787 15.2166 13.5711C15.2166 14.4045 15.6796 15.0443 17.2538 15.0443C18.6681 15.0443 19.1816 14.4971 19.1816 13.7479C19.1816 12.9986 19.1816 12.1315 19.1816 11.677C19.19 11.2308 18.9627 10.2374 17.3548 10.2374ZM18.0956 13.7731C18.0956 13.8741 18.0367 14.0593 17.7252 14.0593C17.4137 14.0593 16.9086 14.0593 16.6982 14.0593C16.4793 14.0593 16.2773 13.832 16.2773 13.5627C16.2773 13.2933 16.412 13.066 16.7403 13.066C17.0686 13.066 18.104 13.066 18.104 13.066C18.104 13.066 18.0956 13.6721 18.0956 13.7731Z" fill="#2C2A7A"/>
  <path d="M27.9449 15.0358C29.1487 15.0358 29.6033 14.7412 29.898 13.8825C29.9064 13.8489 29.8895 13.8152 29.8559 13.8068L28.9888 13.5626C28.9551 13.5542 28.9298 13.5711 28.9214 13.6047C28.8878 13.731 28.7615 14.0257 28.45 14.0257C28.1133 14.0257 27.7008 14.0257 27.524 14.0257C27.3472 14.0257 27.1957 13.8994 27.1957 13.7478C27.1957 13.5963 27.1957 13.1838 27.1957 13.1838C27.1957 13.1838 27.9702 13.1838 28.652 13.1838C29.3844 13.1838 30.0832 12.5945 30.0832 11.7022C30.0832 10.8688 29.6201 10.229 28.0459 10.229C26.6317 10.229 26.1181 10.7762 26.1181 11.5254C26.1181 12.2746 26.1181 13.1417 26.1181 13.5963C26.1097 14.0425 26.337 15.0358 27.9449 15.0358ZM27.1283 11.5338C27.1283 11.4328 27.1873 11.256 27.4819 11.256C27.7765 11.256 28.3069 11.256 28.5174 11.256C28.7952 11.256 28.9214 11.4328 28.9214 11.6938C28.9214 11.9548 28.8709 12.1736 28.4753 12.1736C28.1638 12.1736 27.1283 12.1736 27.1283 12.1736C27.1283 12.1736 27.1283 11.6264 27.1283 11.5338Z" fill="#2C2A7A"/>
  <path d="M22.6666 12.906C23.4242 12.906 24.0556 11.8369 24.1819 11.618C24.1987 11.5928 24.224 11.5759 24.2492 11.5759C24.2913 11.5759 24.325 11.6096 24.325 11.6517V14.9601C24.325 15.0106 24.3671 15.0443 24.4092 15.0443H25.3352C25.3857 15.0443 25.4194 15.0022 25.4194 14.9601V11.0961V11.0877C25.4194 10.6162 25.0405 10.229 24.5607 10.229C24.0977 10.229 23.8536 10.4226 23.5673 10.7762C23.2895 11.1298 22.8265 11.8958 22.6582 11.8958C22.4982 11.8958 22.0268 11.1213 21.749 10.7762C21.4712 10.4226 21.2271 10.229 20.7556 10.229C20.2842 10.229 19.897 10.6078 19.897 11.0877V11.0961V14.9601C19.897 15.0106 19.9391 15.0443 19.9812 15.0443H20.9072C20.9577 15.0443 20.9914 15.0022 20.9914 14.9601V11.6517C20.9914 11.6096 21.025 11.5759 21.0671 11.5759C21.0924 11.5759 21.1176 11.5928 21.1345 11.618C21.2692 11.8453 21.9089 12.906 22.6666 12.906Z" fill="#2C2A7A"/>
  <path d="M9.1469 15.8441C9.38261 15.8441 9.60148 15.7515 9.76985 15.5831L13.5497 11.8033C13.7012 11.6518 13.7938 11.4413 13.7938 11.2224V11.1803C13.7938 10.9615 13.7096 10.751 13.5497 10.5995L12.0933 9.16837C11.9839 9.05893 11.8407 9 11.6892 9H9.1469H6.60457C6.45304 9 6.30993 9.05893 6.20049 9.16837L4.74413 10.5995C4.58418 10.751 4.5 10.9615 4.5 11.1803V11.2224C4.5 11.4413 4.58418 11.6518 4.74413 11.8033L8.52394 15.5831C8.68389 15.7515 8.91118 15.8441 9.1469 15.8441Z" fill="url(#paint0_radial_201_2009)"/>
  <path d="M6.54565 9V9.00842C6.71402 9.00842 6.87397 9.06735 6.99182 9.17678L8.70074 10.7173C8.79334 10.8015 8.91119 10.8436 9.03747 10.8436H9.13849H9.23951C9.36578 10.8436 9.48364 10.7931 9.57624 10.7173L11.2852 9.17678C11.4114 9.06735 11.5714 9.00842 11.7313 9.00842V9C11.7145 9 11.6976 9 11.6724 9H9.13007H6.60458C6.57933 9 6.56249 9 6.54565 9Z" fill="#2C2A7A"/>
  <defs>
    <radialGradient id="paint0_radial_201_2009" cx="0" cy="0" r="1" gradientUnits="userSpaceOnUse" gradientTransform="translate(8.88006 13.1425) rotate(-2.44888) scale(37.1924 29.7157)">
      <stop stop-color="#EE2E60"/>
      <stop offset="1" stop-color="#EE2E60" stop-opacity="0"/>
    </radialGradient>
  </defs>
</symbol>
	<symbol id="Cashback" width="35" height="24" viewBox="0 0 35 24" fill="none" xmlns="http://www.w3.org/2000/svg">
	<rect x="1" y="0.5" width="33" height="23" rx="3.5" fill="white" stroke="#D9D9D9"/>
	<path d="M18.6229 7.35361V8.23694H20.1527V9.57838H17.3397C16.8063 9.57838 16.3723 9.98216 16.3723 10.4785C16.3721 10.9749 16.8061 11.378 17.3397 11.378H18.465C19.7937 11.378 20.8742 12.3834 20.8742 13.6189C20.8742 14.8048 19.8772 15.7679 18.6235 15.8458V16.7438H17.1817V15.8605H15.6518V14.519H18.4648C18.9982 14.519 19.4322 14.1152 19.4322 13.6189C19.4324 13.1225 18.9984 12.7194 18.4641 12.7194H17.3396C16.0109 12.7194 14.9304 11.714 14.9304 10.4785C14.9304 9.29262 15.9274 8.3295 17.1812 8.25162L17.181 7.35361H18.6229ZM17.9019 4C13.7544 4 10.2833 6.74667 9.47963 10.3868L8.63109 9.38867L7.5 10.2203L9.85376 12.9903L12.831 10.8004L11.9372 9.7481L10.9409 10.4813C11.6813 7.54011 14.5181 5.3416 17.902 5.3416C21.8484 5.3416 25.0584 8.32827 25.0584 11.9998C25.0584 15.6713 21.8483 18.6579 17.902 18.6579C16.1725 18.6579 14.5022 18.0757 13.2 17.0201L12.2527 18.0308C13.8172 19.3005 15.8241 20 17.9018 20C22.6425 20 26.5 16.4116 26.5 12.0004C26.5002 7.58894 22.6425 4 17.9018 4H17.9019Z" fill="black"/>
	</symbol>
</svg>
